%TF.GenerationSoftware,KiCad,Pcbnew,8.0.7*%
%TF.CreationDate,2025-02-06T16:30:48-03:00*%
%TF.ProjectId,adcs_board,61646373-5f62-46f6-9172-642e6b696361,1.0*%
%TF.SameCoordinates,Original*%
%TF.FileFunction,Paste,Top*%
%TF.FilePolarity,Positive*%
%FSLAX46Y46*%
G04 Gerber Fmt 4.6, Leading zero omitted, Abs format (unit mm)*
G04 Created by KiCad (PCBNEW 8.0.7) date 2025-02-06 16:30:48*
%MOMM*%
%LPD*%
G01*
G04 APERTURE LIST*
G04 Aperture macros list*
%AMRoundRect*
0 Rectangle with rounded corners*
0 $1 Rounding radius*
0 $2 $3 $4 $5 $6 $7 $8 $9 X,Y pos of 4 corners*
0 Add a 4 corners polygon primitive as box body*
4,1,4,$2,$3,$4,$5,$6,$7,$8,$9,$2,$3,0*
0 Add four circle primitives for the rounded corners*
1,1,$1+$1,$2,$3*
1,1,$1+$1,$4,$5*
1,1,$1+$1,$6,$7*
1,1,$1+$1,$8,$9*
0 Add four rect primitives between the rounded corners*
20,1,$1+$1,$2,$3,$4,$5,0*
20,1,$1+$1,$4,$5,$6,$7,0*
20,1,$1+$1,$6,$7,$8,$9,0*
20,1,$1+$1,$8,$9,$2,$3,0*%
G04 Aperture macros list end*
%ADD10C,0.000000*%
%ADD11C,0.010000*%
%ADD12RoundRect,0.160000X0.197500X0.160000X-0.197500X0.160000X-0.197500X-0.160000X0.197500X-0.160000X0*%
%ADD13RoundRect,0.155000X0.155000X-0.212500X0.155000X0.212500X-0.155000X0.212500X-0.155000X-0.212500X0*%
%ADD14RoundRect,0.155000X-0.212500X-0.155000X0.212500X-0.155000X0.212500X0.155000X-0.212500X0.155000X0*%
%ADD15RoundRect,0.243750X0.243750X0.456250X-0.243750X0.456250X-0.243750X-0.456250X0.243750X-0.456250X0*%
%ADD16RoundRect,0.160000X-0.160000X0.197500X-0.160000X-0.197500X0.160000X-0.197500X0.160000X0.197500X0*%
%ADD17RoundRect,0.155000X0.212500X0.155000X-0.212500X0.155000X-0.212500X-0.155000X0.212500X-0.155000X0*%
%ADD18RoundRect,0.160000X-0.197500X-0.160000X0.197500X-0.160000X0.197500X0.160000X-0.197500X0.160000X0*%
%ADD19RoundRect,0.160000X0.160000X-0.197500X0.160000X0.197500X-0.160000X0.197500X-0.160000X-0.197500X0*%
%ADD20RoundRect,0.155000X-0.155000X0.212500X-0.155000X-0.212500X0.155000X-0.212500X0.155000X0.212500X0*%
%ADD21RoundRect,0.250000X-0.475000X0.250000X-0.475000X-0.250000X0.475000X-0.250000X0.475000X0.250000X0*%
%ADD22RoundRect,0.250000X-0.250000X-0.475000X0.250000X-0.475000X0.250000X0.475000X-0.250000X0.475000X0*%
%ADD23R,0.508000X1.257300*%
%ADD24R,0.812800X1.498600*%
%ADD25R,1.447800X2.006600*%
%ADD26O,0.750001X0.299999*%
%ADD27O,0.299999X0.750001*%
%ADD28RoundRect,0.147500X-0.537500X-0.147500X0.537500X-0.147500X0.537500X0.147500X-0.537500X0.147500X0*%
%ADD29RoundRect,0.218750X0.218750X0.256250X-0.218750X0.256250X-0.218750X-0.256250X0.218750X-0.256250X0*%
%ADD30R,0.533400X1.930400*%
%ADD31RoundRect,0.375000X0.375000X-0.625000X0.375000X0.625000X-0.375000X0.625000X-0.375000X-0.625000X0*%
%ADD32RoundRect,0.500000X1.400000X-0.500000X1.400000X0.500000X-1.400000X0.500000X-1.400000X-0.500000X0*%
%ADD33R,1.168400X1.447800*%
%ADD34R,1.450000X1.100000*%
%ADD35R,2.900000X1.350000*%
%ADD36RoundRect,0.075000X0.225000X-0.910000X0.225000X0.910000X-0.225000X0.910000X-0.225000X-0.910000X0*%
%ADD37RoundRect,0.250000X0.475000X-0.250000X0.475000X0.250000X-0.475000X0.250000X-0.475000X-0.250000X0*%
%ADD38RoundRect,0.150000X0.200000X-0.150000X0.200000X0.150000X-0.200000X0.150000X-0.200000X-0.150000X0*%
%ADD39R,0.558800X2.159000*%
%ADD40RoundRect,0.237500X-0.250000X-0.237500X0.250000X-0.237500X0.250000X0.237500X-0.250000X0.237500X0*%
%ADD41RoundRect,0.243750X-0.243750X-0.456250X0.243750X-0.456250X0.243750X0.456250X-0.243750X0.456250X0*%
%ADD42RoundRect,0.237500X0.250000X0.237500X-0.250000X0.237500X-0.250000X-0.237500X0.250000X-0.237500X0*%
%ADD43R,0.300000X1.475000*%
%ADD44R,1.475000X0.300000*%
%ADD45R,1.447800X1.244600*%
%ADD46C,0.300000*%
%ADD47R,1.200000X0.800000*%
%ADD48R,2.150000X1.300000*%
G04 APERTURE END LIST*
D10*
%TO.C,U23*%
G36*
X158074999Y-98000003D02*
G01*
X156706998Y-98000003D01*
X156706998Y-96632002D01*
X158074999Y-96632002D01*
X158074999Y-98000003D01*
G37*
G36*
X158074999Y-99568001D02*
G01*
X156706998Y-99568001D01*
X156706998Y-98200000D01*
X158074999Y-98200000D01*
X158074999Y-99568001D01*
G37*
G36*
X159642997Y-98000003D02*
G01*
X158274996Y-98000003D01*
X158274996Y-96632002D01*
X159642997Y-96632002D01*
X159642997Y-98000003D01*
G37*
G36*
X159642997Y-99568001D02*
G01*
X158274996Y-99568001D01*
X158274996Y-98200000D01*
X159642997Y-98200000D01*
X159642997Y-99568001D01*
G37*
D11*
%TO.C,J8*%
X171427500Y-106872500D02*
X169887500Y-106872500D01*
X169887500Y-106412500D01*
X169572500Y-106047500D01*
X168812500Y-106047500D01*
X168812500Y-105537500D01*
X169572500Y-105537500D01*
X169887500Y-105172500D01*
X169887500Y-104712500D01*
X171427500Y-104712500D01*
X171427500Y-106872500D01*
G36*
X171427500Y-106872500D02*
G01*
X169887500Y-106872500D01*
X169887500Y-106412500D01*
X169572500Y-106047500D01*
X168812500Y-106047500D01*
X168812500Y-105537500D01*
X169572500Y-105537500D01*
X169887500Y-105172500D01*
X169887500Y-104712500D01*
X171427500Y-104712500D01*
X171427500Y-106872500D01*
G37*
X171427500Y-109412500D02*
X169887500Y-109412500D01*
X169887500Y-108952500D01*
X169572500Y-108587500D01*
X168812500Y-108587500D01*
X168812500Y-108077500D01*
X169572500Y-108077500D01*
X169887500Y-107712500D01*
X169887500Y-107252500D01*
X171427500Y-107252500D01*
X171427500Y-109412500D01*
G36*
X171427500Y-109412500D02*
G01*
X169887500Y-109412500D01*
X169887500Y-108952500D01*
X169572500Y-108587500D01*
X168812500Y-108587500D01*
X168812500Y-108077500D01*
X169572500Y-108077500D01*
X169887500Y-107712500D01*
X169887500Y-107252500D01*
X171427500Y-107252500D01*
X171427500Y-109412500D01*
G37*
X171427500Y-111952500D02*
X169887500Y-111952500D01*
X169887500Y-111492500D01*
X169572500Y-111127500D01*
X168812500Y-111127500D01*
X168812500Y-110617500D01*
X169572500Y-110617500D01*
X169887500Y-110252500D01*
X169887500Y-109792500D01*
X171427500Y-109792500D01*
X171427500Y-111952500D01*
G36*
X171427500Y-111952500D02*
G01*
X169887500Y-111952500D01*
X169887500Y-111492500D01*
X169572500Y-111127500D01*
X168812500Y-111127500D01*
X168812500Y-110617500D01*
X169572500Y-110617500D01*
X169887500Y-110252500D01*
X169887500Y-109792500D01*
X171427500Y-109792500D01*
X171427500Y-111952500D01*
G37*
X171427500Y-114492500D02*
X169887500Y-114492500D01*
X169887500Y-114032500D01*
X169572500Y-113667500D01*
X168812500Y-113667500D01*
X168812500Y-113157500D01*
X169572500Y-113157500D01*
X169887500Y-112792500D01*
X169887500Y-112332500D01*
X171427500Y-112332500D01*
X171427500Y-114492500D01*
G36*
X171427500Y-114492500D02*
G01*
X169887500Y-114492500D01*
X169887500Y-114032500D01*
X169572500Y-113667500D01*
X168812500Y-113667500D01*
X168812500Y-113157500D01*
X169572500Y-113157500D01*
X169887500Y-112792500D01*
X169887500Y-112332500D01*
X171427500Y-112332500D01*
X171427500Y-114492500D01*
G37*
D10*
%TO.C,U28*%
G36*
X111775004Y-92750001D02*
G01*
X110407003Y-92750001D01*
X110407003Y-91382000D01*
X111775004Y-91382000D01*
X111775004Y-92750001D01*
G37*
G36*
X111775004Y-94317999D02*
G01*
X110407003Y-94317999D01*
X110407003Y-92949998D01*
X111775004Y-92949998D01*
X111775004Y-94317999D01*
G37*
G36*
X113343002Y-92750001D02*
G01*
X111975001Y-92750001D01*
X111975001Y-91382000D01*
X113343002Y-91382000D01*
X113343002Y-92750001D01*
G37*
G36*
X113343002Y-94317999D02*
G01*
X111975001Y-94317999D01*
X111975001Y-92949998D01*
X113343002Y-92949998D01*
X113343002Y-94317999D01*
G37*
%TO.C,U31*%
G36*
X103492811Y-122974111D02*
G01*
X102494589Y-122974111D01*
X102494589Y-122625890D01*
X103492811Y-122625890D01*
X103492811Y-122974111D01*
G37*
G36*
X103492811Y-123624112D02*
G01*
X102494589Y-123624112D01*
X102494589Y-123275891D01*
X103492811Y-123275891D01*
X103492811Y-123624112D01*
G37*
G36*
X103492811Y-124274111D02*
G01*
X102494589Y-124274111D01*
X102494589Y-123925890D01*
X103492811Y-123925890D01*
X103492811Y-124274111D01*
G37*
G36*
X103492811Y-124924112D02*
G01*
X102494589Y-124924112D01*
X102494589Y-124575891D01*
X103492811Y-124575891D01*
X103492811Y-124924112D01*
G37*
G36*
X104092810Y-122374112D02*
G01*
X103744589Y-122374112D01*
X103744589Y-121375890D01*
X104092810Y-121375890D01*
X104092810Y-122374112D01*
G37*
G36*
X104092810Y-126174112D02*
G01*
X103744589Y-126174112D01*
X103744589Y-125175890D01*
X104092810Y-125175890D01*
X104092810Y-126174112D01*
G37*
G36*
X104742811Y-122374112D02*
G01*
X104394590Y-122374112D01*
X104394590Y-121375890D01*
X104742811Y-121375890D01*
X104742811Y-122374112D01*
G37*
G36*
X104742811Y-126174112D02*
G01*
X104394590Y-126174112D01*
X104394590Y-125175890D01*
X104742811Y-125175890D01*
X104742811Y-126174112D01*
G37*
G36*
X105392810Y-122374112D02*
G01*
X105044589Y-122374112D01*
X105044589Y-121375890D01*
X105392810Y-121375890D01*
X105392810Y-122374112D01*
G37*
G36*
X105392810Y-126174112D02*
G01*
X105044589Y-126174112D01*
X105044589Y-125175890D01*
X105392810Y-125175890D01*
X105392810Y-126174112D01*
G37*
G36*
X106042811Y-122374112D02*
G01*
X105694590Y-122374112D01*
X105694590Y-121375890D01*
X106042811Y-121375890D01*
X106042811Y-122374112D01*
G37*
G36*
X106042811Y-126174112D02*
G01*
X105694590Y-126174112D01*
X105694590Y-125175890D01*
X106042811Y-125175890D01*
X106042811Y-126174112D01*
G37*
G36*
X107292811Y-122974111D02*
G01*
X106294589Y-122974111D01*
X106294589Y-122625890D01*
X107292811Y-122625890D01*
X107292811Y-122974111D01*
G37*
G36*
X107292811Y-123624112D02*
G01*
X106294589Y-123624112D01*
X106294589Y-123275891D01*
X107292811Y-123275891D01*
X107292811Y-123624112D01*
G37*
G36*
X107292811Y-124274111D02*
G01*
X106294589Y-124274111D01*
X106294589Y-123925890D01*
X107292811Y-123925890D01*
X107292811Y-124274111D01*
G37*
G36*
X107292811Y-124924112D02*
G01*
X106294589Y-124924112D01*
X106294589Y-124575891D01*
X107292811Y-124575891D01*
X107292811Y-124924112D01*
G37*
G36*
X104400000Y-123139880D02*
G01*
X104258579Y-123281301D01*
X103868630Y-123281301D01*
X103868630Y-122749931D01*
X104400000Y-122749931D01*
X104400000Y-123139880D01*
G37*
G36*
X104400000Y-124410122D02*
G01*
X104400000Y-124800071D01*
X103868630Y-124800071D01*
X103868630Y-124268701D01*
X104258579Y-124268701D01*
X104400000Y-124410122D01*
G37*
G36*
X105918770Y-123281301D02*
G01*
X105528821Y-123281301D01*
X105387400Y-123139880D01*
X105387400Y-122749931D01*
X105918770Y-122749931D01*
X105918770Y-123281301D01*
G37*
G36*
X105918770Y-124800071D02*
G01*
X105387400Y-124800071D01*
X105387400Y-124410122D01*
X105528821Y-124268701D01*
X105918770Y-124268701D01*
X105918770Y-124800071D01*
G37*
G36*
X104400000Y-123622722D02*
G01*
X104400000Y-123927280D01*
X104258579Y-124068701D01*
X103868630Y-124068701D01*
X103868630Y-123481301D01*
X104258579Y-123481301D01*
X104400000Y-123622722D01*
G37*
G36*
X105187400Y-123139880D02*
G01*
X105045979Y-123281301D01*
X104741421Y-123281301D01*
X104600000Y-123139880D01*
X104600000Y-122749931D01*
X105187400Y-122749931D01*
X105187400Y-123139880D01*
G37*
G36*
X105187400Y-124410122D02*
G01*
X105187400Y-124800071D01*
X104600000Y-124800071D01*
X104600000Y-124410122D01*
X104741421Y-124268701D01*
X105045979Y-124268701D01*
X105187400Y-124410122D01*
G37*
G36*
X105918770Y-124068701D02*
G01*
X105528821Y-124068701D01*
X105387400Y-123927280D01*
X105387400Y-123622722D01*
X105528821Y-123481301D01*
X105918770Y-123481301D01*
X105918770Y-124068701D01*
G37*
G36*
X105187400Y-123622722D02*
G01*
X105187400Y-123927280D01*
X105045979Y-124068701D01*
X104741421Y-124068701D01*
X104600000Y-123927280D01*
X104600000Y-123622722D01*
X104741421Y-123481301D01*
X105045979Y-123481301D01*
X105187400Y-123622722D01*
G37*
%TO.C,U30*%
G36*
X103492811Y-114174109D02*
G01*
X102494589Y-114174109D01*
X102494589Y-113825888D01*
X103492811Y-113825888D01*
X103492811Y-114174109D01*
G37*
G36*
X103492811Y-114824110D02*
G01*
X102494589Y-114824110D01*
X102494589Y-114475889D01*
X103492811Y-114475889D01*
X103492811Y-114824110D01*
G37*
G36*
X103492811Y-115474109D02*
G01*
X102494589Y-115474109D01*
X102494589Y-115125888D01*
X103492811Y-115125888D01*
X103492811Y-115474109D01*
G37*
G36*
X103492811Y-116124110D02*
G01*
X102494589Y-116124110D01*
X102494589Y-115775889D01*
X103492811Y-115775889D01*
X103492811Y-116124110D01*
G37*
G36*
X104092810Y-113574110D02*
G01*
X103744589Y-113574110D01*
X103744589Y-112575888D01*
X104092810Y-112575888D01*
X104092810Y-113574110D01*
G37*
G36*
X104092810Y-117374110D02*
G01*
X103744589Y-117374110D01*
X103744589Y-116375888D01*
X104092810Y-116375888D01*
X104092810Y-117374110D01*
G37*
G36*
X104742811Y-113574110D02*
G01*
X104394590Y-113574110D01*
X104394590Y-112575888D01*
X104742811Y-112575888D01*
X104742811Y-113574110D01*
G37*
G36*
X104742811Y-117374110D02*
G01*
X104394590Y-117374110D01*
X104394590Y-116375888D01*
X104742811Y-116375888D01*
X104742811Y-117374110D01*
G37*
G36*
X105392810Y-113574110D02*
G01*
X105044589Y-113574110D01*
X105044589Y-112575888D01*
X105392810Y-112575888D01*
X105392810Y-113574110D01*
G37*
G36*
X105392810Y-117374110D02*
G01*
X105044589Y-117374110D01*
X105044589Y-116375888D01*
X105392810Y-116375888D01*
X105392810Y-117374110D01*
G37*
G36*
X106042811Y-113574110D02*
G01*
X105694590Y-113574110D01*
X105694590Y-112575888D01*
X106042811Y-112575888D01*
X106042811Y-113574110D01*
G37*
G36*
X106042811Y-117374110D02*
G01*
X105694590Y-117374110D01*
X105694590Y-116375888D01*
X106042811Y-116375888D01*
X106042811Y-117374110D01*
G37*
G36*
X107292811Y-114174109D02*
G01*
X106294589Y-114174109D01*
X106294589Y-113825888D01*
X107292811Y-113825888D01*
X107292811Y-114174109D01*
G37*
G36*
X107292811Y-114824110D02*
G01*
X106294589Y-114824110D01*
X106294589Y-114475889D01*
X107292811Y-114475889D01*
X107292811Y-114824110D01*
G37*
G36*
X107292811Y-115474109D02*
G01*
X106294589Y-115474109D01*
X106294589Y-115125888D01*
X107292811Y-115125888D01*
X107292811Y-115474109D01*
G37*
G36*
X107292811Y-116124110D02*
G01*
X106294589Y-116124110D01*
X106294589Y-115775889D01*
X107292811Y-115775889D01*
X107292811Y-116124110D01*
G37*
G36*
X104400000Y-114339878D02*
G01*
X104258579Y-114481299D01*
X103868630Y-114481299D01*
X103868630Y-113949929D01*
X104400000Y-113949929D01*
X104400000Y-114339878D01*
G37*
G36*
X104400000Y-115610120D02*
G01*
X104400000Y-116000069D01*
X103868630Y-116000069D01*
X103868630Y-115468699D01*
X104258579Y-115468699D01*
X104400000Y-115610120D01*
G37*
G36*
X105918770Y-114481299D02*
G01*
X105528821Y-114481299D01*
X105387400Y-114339878D01*
X105387400Y-113949929D01*
X105918770Y-113949929D01*
X105918770Y-114481299D01*
G37*
G36*
X105918770Y-116000069D02*
G01*
X105387400Y-116000069D01*
X105387400Y-115610120D01*
X105528821Y-115468699D01*
X105918770Y-115468699D01*
X105918770Y-116000069D01*
G37*
G36*
X104400000Y-114822720D02*
G01*
X104400000Y-115127278D01*
X104258579Y-115268699D01*
X103868630Y-115268699D01*
X103868630Y-114681299D01*
X104258579Y-114681299D01*
X104400000Y-114822720D01*
G37*
G36*
X105187400Y-114339878D02*
G01*
X105045979Y-114481299D01*
X104741421Y-114481299D01*
X104600000Y-114339878D01*
X104600000Y-113949929D01*
X105187400Y-113949929D01*
X105187400Y-114339878D01*
G37*
G36*
X105187400Y-115610120D02*
G01*
X105187400Y-116000069D01*
X104600000Y-116000069D01*
X104600000Y-115610120D01*
X104741421Y-115468699D01*
X105045979Y-115468699D01*
X105187400Y-115610120D01*
G37*
G36*
X105918770Y-115268699D02*
G01*
X105528821Y-115268699D01*
X105387400Y-115127278D01*
X105387400Y-114822720D01*
X105528821Y-114681299D01*
X105918770Y-114681299D01*
X105918770Y-115268699D01*
G37*
G36*
X105187400Y-114822720D02*
G01*
X105187400Y-115127278D01*
X105045979Y-115268699D01*
X104741421Y-115268699D01*
X104600000Y-115127278D01*
X104600000Y-114822720D01*
X104741421Y-114681299D01*
X105045979Y-114681299D01*
X105187400Y-114822720D01*
G37*
%TD*%
D12*
%TO.C,R65*%
X153697500Y-101070000D03*
X152502500Y-101070000D03*
%TD*%
D13*
%TO.C,C65*%
X172050000Y-79767500D03*
X172050000Y-78632500D03*
%TD*%
D14*
%TO.C,C60*%
X139000000Y-81300000D03*
X140135000Y-81300000D03*
%TD*%
D15*
%TO.C,D10*%
X118037500Y-115700000D03*
X116162500Y-115700000D03*
%TD*%
D16*
%TO.C,R30*%
X143300000Y-65602501D03*
X143300000Y-66797501D03*
%TD*%
D12*
%TO.C,R68*%
X153697500Y-95100000D03*
X152502500Y-95100000D03*
%TD*%
D17*
%TO.C,C67*%
X161758700Y-61300000D03*
X160623700Y-61300000D03*
%TD*%
D13*
%TO.C,C79*%
X156800000Y-93235000D03*
X156800000Y-92100000D03*
%TD*%
D18*
%TO.C,R79*%
X108181666Y-81892183D03*
X109376666Y-81892183D03*
%TD*%
D19*
%TO.C,R74*%
X104281783Y-77454983D03*
X104281783Y-76259983D03*
%TD*%
D14*
%TO.C,C64*%
X168271200Y-60025000D03*
X169406200Y-60025000D03*
%TD*%
%TO.C,C62*%
X168271200Y-62575000D03*
X169406200Y-62575000D03*
%TD*%
D20*
%TO.C,C106*%
X109400000Y-119932500D03*
X109400000Y-121067500D03*
%TD*%
D21*
%TO.C,C6*%
X141150000Y-127380000D03*
X141150000Y-129280000D03*
%TD*%
D20*
%TO.C,C68*%
X143300000Y-109300000D03*
X143300000Y-110435000D03*
%TD*%
D22*
%TO.C,C9*%
X157470000Y-117360000D03*
X159370000Y-117360000D03*
%TD*%
D13*
%TO.C,C4*%
X128500000Y-81067500D03*
X128500000Y-79932500D03*
%TD*%
D17*
%TO.C,C88*%
X109346666Y-83627333D03*
X108211666Y-83627333D03*
%TD*%
D23*
%TO.C,U20*%
X169810000Y-72900000D03*
X168540000Y-72900000D03*
X167270000Y-72900000D03*
X166000000Y-72900000D03*
X166000000Y-78145100D03*
X167270000Y-78145100D03*
X168540000Y-78145100D03*
X169810000Y-78145100D03*
%TD*%
D24*
%TO.C,J1*%
X150590001Y-58762499D03*
X149490001Y-58762499D03*
X148390000Y-58762499D03*
X147290000Y-58762499D03*
X146190002Y-58762499D03*
X145090002Y-58762499D03*
X143990001Y-58762499D03*
X142890001Y-58762499D03*
D25*
X154260002Y-61362499D03*
X154260002Y-53062499D03*
X140510000Y-53062499D03*
X140510000Y-61362499D03*
%TD*%
D17*
%TO.C,C54*%
X161382500Y-81800000D03*
X160247500Y-81800000D03*
%TD*%
D26*
%TO.C,U23*%
X160499998Y-99400000D03*
X160499998Y-98750001D03*
X160499998Y-98100000D03*
X160499998Y-97450001D03*
X160499998Y-96800000D03*
D27*
X159474999Y-95775001D03*
X158825000Y-95775001D03*
X158174999Y-95775001D03*
X157525000Y-95775001D03*
X156874999Y-95775001D03*
D26*
X155850000Y-96800000D03*
X155850000Y-97450001D03*
X155850000Y-98100000D03*
X155850000Y-98750001D03*
X155850000Y-99400000D03*
D27*
X156874999Y-100424999D03*
X157525000Y-100424999D03*
X158174999Y-100424999D03*
X158825000Y-100424999D03*
X159474999Y-100424999D03*
%TD*%
D28*
%TO.C,U5*%
X135850000Y-126410000D03*
X135850000Y-127360000D03*
X135850000Y-128310000D03*
X138190000Y-128310000D03*
X138190000Y-127360000D03*
X138190000Y-126410000D03*
%TD*%
D20*
%TO.C,C100*%
X111575000Y-96307501D03*
X111575000Y-97442501D03*
%TD*%
D19*
%TO.C,R31*%
X141310000Y-66797501D03*
X141310000Y-65602501D03*
%TD*%
D29*
%TO.C,L2*%
X154297500Y-123060000D03*
X152722500Y-123060000D03*
%TD*%
D18*
%TO.C,R83*%
X117202500Y-87624000D03*
X118397500Y-87624000D03*
%TD*%
D13*
%TO.C,C83*%
X169100000Y-91735000D03*
X169100000Y-90600000D03*
%TD*%
D30*
%TO.C,U25*%
X115815000Y-53926400D03*
X114545000Y-53926400D03*
X113275000Y-53926400D03*
X112005000Y-53926400D03*
X110735000Y-53926400D03*
X109465000Y-53926400D03*
X108195000Y-53926400D03*
X106925000Y-53926400D03*
X105655000Y-53926400D03*
X104385000Y-53926400D03*
X104385000Y-63273600D03*
X105655000Y-63273600D03*
X106925000Y-63273600D03*
X108195000Y-63273600D03*
X109465000Y-63273600D03*
X110735000Y-63273600D03*
X112005000Y-63273600D03*
X113275000Y-63273600D03*
X114545000Y-63273600D03*
X115815000Y-63273600D03*
%TD*%
D31*
%TO.C,U18*%
X155900000Y-79250000D03*
X158200000Y-79250000D03*
D32*
X158200000Y-72950000D03*
D31*
X160500000Y-79250000D03*
%TD*%
D13*
%TO.C,C84*%
X104275001Y-91425002D03*
X104275001Y-90290002D03*
%TD*%
D12*
%TO.C,R89*%
X115911666Y-67262483D03*
X114716666Y-67262483D03*
%TD*%
D33*
%TO.C,FB2*%
X164147400Y-61300000D03*
X165900000Y-61300000D03*
%TD*%
D28*
%TO.C,U6*%
X152680000Y-126180000D03*
X152680000Y-127130000D03*
X152680000Y-128080000D03*
X155020000Y-128080000D03*
X155020000Y-127130000D03*
X155020000Y-126180000D03*
%TD*%
D16*
%TO.C,R26*%
X151260000Y-65602501D03*
X151260000Y-66797501D03*
%TD*%
D34*
%TO.C,J7*%
X97925000Y-114375000D03*
X97925000Y-116375000D03*
X97925000Y-118375000D03*
X97925000Y-120375000D03*
X97925000Y-122375000D03*
X97925000Y-124375000D03*
D35*
X91950000Y-111480000D03*
X91950000Y-127270000D03*
%TD*%
D26*
%TO.C,U28*%
X109550002Y-91550001D03*
X109550002Y-92200000D03*
X109550002Y-92850001D03*
X109550002Y-93500000D03*
X109550002Y-94150001D03*
D27*
X110575001Y-95175000D03*
X111225000Y-95175000D03*
X111875001Y-95175000D03*
X112525000Y-95175000D03*
X113175001Y-95175000D03*
D26*
X114200000Y-94150001D03*
X114200000Y-93500000D03*
X114200000Y-92850001D03*
X114200000Y-92200000D03*
X114200000Y-91550001D03*
D27*
X113175001Y-90525002D03*
X112525000Y-90525002D03*
X111875001Y-90525002D03*
X111225000Y-90525002D03*
X110575001Y-90525002D03*
%TD*%
D12*
%TO.C,R66*%
X153697500Y-99080000D03*
X152502500Y-99080000D03*
%TD*%
D36*
%TO.C,U24*%
X167060000Y-99407500D03*
X168330000Y-99407500D03*
X169600000Y-99407500D03*
X170870000Y-99407500D03*
X170870000Y-94467500D03*
X169600000Y-94467500D03*
X168330000Y-94467500D03*
X167060000Y-94467500D03*
%TD*%
D18*
%TO.C,R96*%
X112805000Y-115707107D03*
X114000000Y-115707107D03*
%TD*%
D34*
%TO.C,J5*%
X97925000Y-88589500D03*
X97925000Y-90589500D03*
X97925000Y-92589500D03*
X97925000Y-94589500D03*
X97925000Y-96589500D03*
X97925000Y-98589500D03*
D35*
X91950000Y-85694500D03*
X91950000Y-101484500D03*
%TD*%
D37*
%TO.C,C77*%
X158600000Y-93400000D03*
X158600000Y-91500000D03*
%TD*%
D18*
%TO.C,R24*%
X155105000Y-68300000D03*
X156300000Y-68300000D03*
%TD*%
D38*
%TO.C,D2*%
X136180000Y-120022500D03*
X136180000Y-121422500D03*
%TD*%
D18*
%TO.C,R73*%
X108181666Y-85362483D03*
X109376666Y-85362483D03*
%TD*%
D39*
%TO.C,U26*%
X108320000Y-78462483D03*
X109590000Y-78462483D03*
X110860000Y-78462483D03*
X112130000Y-78462483D03*
X113400000Y-78462483D03*
X114670000Y-78462483D03*
X115940000Y-78462483D03*
X115940000Y-71706083D03*
X114670000Y-71706083D03*
X113400000Y-71706083D03*
X112130000Y-71706083D03*
X110860000Y-71706083D03*
X109590000Y-71706083D03*
X108320000Y-71706083D03*
%TD*%
D16*
%TO.C,R29*%
X145290000Y-65602501D03*
X145290000Y-66797501D03*
%TD*%
D20*
%TO.C,C108*%
X109400000Y-115932500D03*
X109400000Y-117067500D03*
%TD*%
D21*
%TO.C,C8*%
X158420000Y-127120000D03*
X158420000Y-129020000D03*
%TD*%
D18*
%TO.C,R81*%
X117202500Y-98504000D03*
X118397500Y-98504000D03*
%TD*%
D40*
%TO.C,R5*%
X157457500Y-119880000D03*
X159282500Y-119880000D03*
%TD*%
D18*
%TO.C,R84*%
X117202500Y-89800000D03*
X118397500Y-89800000D03*
%TD*%
D22*
%TO.C,C7*%
X140230000Y-117600000D03*
X142130000Y-117600000D03*
%TD*%
D17*
%TO.C,C52*%
X156267500Y-81800000D03*
X155132500Y-81800000D03*
%TD*%
D16*
%TO.C,R87*%
X119100000Y-73002500D03*
X119100000Y-74197500D03*
%TD*%
D12*
%TO.C,R67*%
X153697500Y-97090000D03*
X152502500Y-97090000D03*
%TD*%
D18*
%TO.C,R82*%
X117202500Y-94152000D03*
X118397500Y-94152000D03*
%TD*%
D38*
%TO.C,D1*%
X152710000Y-119850000D03*
X152710000Y-121250000D03*
%TD*%
D16*
%TO.C,R28*%
X147280000Y-65602501D03*
X147280000Y-66797501D03*
%TD*%
D13*
%TO.C,C86*%
X106575001Y-91425002D03*
X106575001Y-90290002D03*
%TD*%
D17*
%TO.C,C103*%
X107067500Y-119000000D03*
X105932500Y-119000000D03*
%TD*%
D13*
%TO.C,C72*%
X156300000Y-86917500D03*
X156300000Y-85782500D03*
%TD*%
D29*
%TO.C,L1*%
X137780000Y-123320000D03*
X136205000Y-123320000D03*
%TD*%
D14*
%TO.C,C63*%
X139000000Y-79600000D03*
X140135000Y-79600000D03*
%TD*%
D41*
%TO.C,D6*%
X159977500Y-68300000D03*
X161852500Y-68300000D03*
%TD*%
D13*
%TO.C,C85*%
X106575001Y-95250001D03*
X106575001Y-94115001D03*
%TD*%
D18*
%TO.C,R75*%
X114649166Y-85362483D03*
X115844166Y-85362483D03*
%TD*%
D14*
%TO.C,C80*%
X160832500Y-94600000D03*
X161967500Y-94600000D03*
%TD*%
D17*
%TO.C,C69*%
X140389500Y-109325001D03*
X139254500Y-109325001D03*
%TD*%
D18*
%TO.C,R34*%
X152502500Y-87500000D03*
X153697500Y-87500000D03*
%TD*%
D16*
%TO.C,R1*%
X144000000Y-88734045D03*
X144000000Y-89929045D03*
%TD*%
D40*
%TO.C,R3*%
X140237500Y-120020000D03*
X142062500Y-120020000D03*
%TD*%
D15*
%TO.C,D9*%
X118037500Y-119200000D03*
X116162500Y-119200000D03*
%TD*%
D18*
%TO.C,R88*%
X108402500Y-67184283D03*
X109597500Y-67184283D03*
%TD*%
D16*
%TO.C,R76*%
X104281783Y-72686783D03*
X104281783Y-73881783D03*
%TD*%
D20*
%TO.C,C102*%
X109499999Y-96400000D03*
X109499999Y-97535000D03*
%TD*%
D42*
%TO.C,R4*%
X142072500Y-122290000D03*
X140247500Y-122290000D03*
%TD*%
D17*
%TO.C,C89*%
X115814166Y-83627333D03*
X114679166Y-83627333D03*
%TD*%
D18*
%TO.C,R80*%
X114649166Y-81892183D03*
X115844166Y-81892183D03*
%TD*%
D13*
%TO.C,C74*%
X158700000Y-86917500D03*
X158700000Y-85782500D03*
%TD*%
D17*
%TO.C,C104*%
X107067500Y-128000000D03*
X105932500Y-128000000D03*
%TD*%
D43*
%TO.C,IC1*%
X139535285Y-85191045D03*
X139035285Y-85191045D03*
X138535285Y-85191045D03*
X138035285Y-85191045D03*
X137535285Y-85191045D03*
X137035285Y-85191045D03*
X136535285Y-85191045D03*
X136035285Y-85191045D03*
X135535285Y-85191045D03*
X135035285Y-85191045D03*
X134535285Y-85191045D03*
X134035285Y-85191045D03*
X133535285Y-85191045D03*
X133035285Y-85191045D03*
X132535285Y-85191045D03*
X132035285Y-85191045D03*
X131535285Y-85191045D03*
X131035285Y-85191045D03*
X130535285Y-85191045D03*
X130035285Y-85191045D03*
X129535285Y-85191045D03*
X129035285Y-85191045D03*
X128535285Y-85191045D03*
X128035285Y-85191045D03*
X127535285Y-85191045D03*
D44*
X125797285Y-86929045D03*
X125797285Y-87429045D03*
X125797285Y-87929045D03*
X125797285Y-88429045D03*
X125797285Y-88929045D03*
X125797285Y-89429045D03*
X125797285Y-89929045D03*
X125797285Y-90429045D03*
X125797285Y-90929045D03*
X125797285Y-91429045D03*
X125797285Y-91929045D03*
X125797285Y-92429045D03*
X125797285Y-92929045D03*
X125797285Y-93429045D03*
X125797285Y-93929045D03*
X125797285Y-94429045D03*
X125797285Y-94929045D03*
X125797285Y-95429045D03*
X125797285Y-95929045D03*
X125797285Y-96429045D03*
X125797285Y-96929045D03*
X125797285Y-97429045D03*
X125797285Y-97929045D03*
X125797285Y-98429045D03*
X125797285Y-98929045D03*
D43*
X127535285Y-100667045D03*
X128035285Y-100667045D03*
X128535285Y-100667045D03*
X129035285Y-100667045D03*
X129535285Y-100667045D03*
X130035285Y-100667045D03*
X130535285Y-100667045D03*
X131035285Y-100667045D03*
X131535285Y-100667045D03*
X132035285Y-100667045D03*
X132535285Y-100667045D03*
X133035285Y-100667045D03*
X133535285Y-100667045D03*
X134035285Y-100667045D03*
X134535285Y-100667045D03*
X135035285Y-100667045D03*
X135535285Y-100667045D03*
X136035285Y-100667045D03*
X136535285Y-100667045D03*
X137035285Y-100667045D03*
X137535285Y-100667045D03*
X138035285Y-100667045D03*
X138535285Y-100667045D03*
X139035285Y-100667045D03*
X139535285Y-100667045D03*
D44*
X141273285Y-98929045D03*
X141273285Y-98429045D03*
X141273285Y-97929045D03*
X141273285Y-97429045D03*
X141273285Y-96929045D03*
X141273285Y-96429045D03*
X141273285Y-95929045D03*
X141273285Y-95429045D03*
X141273285Y-94929045D03*
X141273285Y-94429045D03*
X141273285Y-93929045D03*
X141273285Y-93429045D03*
X141273285Y-92929045D03*
X141273285Y-92429045D03*
X141273285Y-91929045D03*
X141273285Y-91429045D03*
X141273285Y-90929045D03*
X141273285Y-90429045D03*
X141273285Y-89929045D03*
X141273285Y-89429045D03*
X141273285Y-88929045D03*
X141273285Y-88429045D03*
X141273285Y-87929045D03*
X141273285Y-87429045D03*
X141273285Y-86929045D03*
%TD*%
D17*
%TO.C,C90*%
X115881666Y-68997633D03*
X114746666Y-68997633D03*
%TD*%
D20*
%TO.C,C107*%
X109400000Y-124932500D03*
X109400000Y-126067500D03*
%TD*%
D16*
%TO.C,R27*%
X149270000Y-65602501D03*
X149270000Y-66797501D03*
%TD*%
D42*
%TO.C,R6*%
X159292500Y-122600000D03*
X157467500Y-122600000D03*
%TD*%
D18*
%TO.C,R85*%
X117202500Y-91976000D03*
X118397500Y-91976000D03*
%TD*%
D13*
%TO.C,C87*%
X104275001Y-95250001D03*
X104275001Y-94115001D03*
%TD*%
D45*
%TO.C,XTAL1*%
X131717300Y-79000000D03*
X131717300Y-81489200D03*
X134282700Y-81489200D03*
X134282700Y-79000000D03*
%TD*%
D46*
%TO.C,U31*%
X104500000Y-123381301D03*
X104500000Y-124168701D03*
X105287400Y-123381301D03*
X105287400Y-124168701D03*
%TD*%
D15*
%TO.C,D8*%
X118037500Y-122700000D03*
X116162500Y-122700000D03*
%TD*%
D18*
%TO.C,R95*%
X112805000Y-119207107D03*
X114000000Y-119207107D03*
%TD*%
D47*
%TO.C,J6*%
X94250000Y-64750000D03*
X94250000Y-66000000D03*
X94250000Y-67250000D03*
X94250000Y-68500000D03*
X94250000Y-69750000D03*
X94250000Y-71000000D03*
X94250000Y-72250000D03*
X94250000Y-73500000D03*
X94250000Y-74750000D03*
X94250000Y-76000000D03*
D48*
X91955000Y-77900000D03*
X91955000Y-62850000D03*
%TD*%
D20*
%TO.C,C105*%
X109400000Y-112432500D03*
X109400000Y-113567500D03*
%TD*%
D18*
%TO.C,R94*%
X112805000Y-122707107D03*
X114000000Y-122707107D03*
%TD*%
D46*
%TO.C,U30*%
X104500000Y-114581299D03*
X104500000Y-115368699D03*
X105287400Y-114581299D03*
X105287400Y-115368699D03*
%TD*%
D13*
%TO.C,C61*%
X140520000Y-73322500D03*
X140520000Y-72187500D03*
%TD*%
D18*
%TO.C,R33*%
X152502500Y-85100000D03*
X153697500Y-85100000D03*
%TD*%
D13*
%TO.C,C82*%
X171107500Y-91760000D03*
X171107500Y-90625000D03*
%TD*%
D18*
%TO.C,R86*%
X117202500Y-96328000D03*
X118397500Y-96328000D03*
%TD*%
D19*
%TO.C,R2*%
X132700000Y-66597500D03*
X132700000Y-65402500D03*
%TD*%
M02*
