M48
; DRILL file {KiCad 8.0.7} date 2025-02-06T16:30:44-0300
; FORMAT={-:-/ absolute / inch / decimal}
; #@! TF.CreationDate,2025-02-06T16:30:44-03:00
; #@! TF.GenerationSoftware,Kicad,Pcbnew,8.0.7
; #@! TF.FileFunction,Plated,1,4,PTH
FMAT,2
INCH
; #@! TA.AperFunction,Plated,PTH,ComponentDrill
T1C0.0080
; #@! TA.AperFunction,Plated,PTH,ViaDrill
T2C0.0118
; #@! TA.AperFunction,Plated,PTH,ViaDrill
T3C0.0157
; #@! TA.AperFunction,Plated,PTH,ComponentDrill
T4C0.0200
; #@! TA.AperFunction,Plated,PTH,ComponentDrill
T5C0.0402
; #@! TA.AperFunction,Plated,PTH,ComponentDrill
T6C0.1260
%
G90
G05
T1
X4.3524Y-3.6555
X4.4045Y-3.6033
X4.4045Y-3.6555
X4.4045Y-3.7077
X4.4567Y-3.6555
X6.1752Y-3.8622
X6.2274Y-3.81
X6.2274Y-3.8622
X6.2274Y-3.9144
X6.2795Y-3.8622
T2
X3.622Y-2.7441
X3.6535Y-2.7953
X3.7795Y-2.5502
X3.7795Y-2.6496
X3.7795Y-2.7461
X3.7795Y-2.9764
X3.8228Y-2.7953
X3.874Y-2.8898
X3.874Y-3.0197
X3.9094Y-4.5827
X3.9213Y-3.5669
X3.9213Y-3.6535
X3.9213Y-3.7165
X3.9213Y-3.8819
X3.9225Y-4.8293
X3.9252Y-3.4409
X3.937Y-4.5276
X3.9685Y-2.8701
X3.9843Y-4.6969
X3.9862Y-4.8327
X3.9902Y-4.6516
X3.9921Y-5.0709
X3.9961Y-4.8858
X3.9961Y-4.7638
X3.9961Y-4.9409
X4.002Y-4.5886
X4.0022Y-4.4843
X4.0118Y-3.6142
X4.0157Y-4.3701
X4.0236Y-5.0
X4.0394Y-4.4094
X4.0394Y-4.9449
X4.0453Y-4.7421
X4.0512Y-4.6772
X4.0551Y-2.8976
X4.0553Y-4.5984
X4.0591Y-3.0512
X4.0591Y-4.6378
X4.0591Y-5.0512
X4.0787Y-5.0079
X4.0827Y-4.313
X4.0827Y-4.3622
X4.0906Y-4.6693
X4.0984Y-3.6535
X4.1063Y-3.7953
X4.1437Y-5.1022
X4.1535Y-3.4094
X4.1596Y-2.1929
X4.1614Y-3.0157
X4.1929Y-4.7165
X4.1949Y-4.6476
X4.1978Y-2.4124
X4.2047Y-2.6102
X4.2126Y-3.4094
X4.2126Y-4.9803
X4.2135Y-4.4339
X4.2165Y-4.7874
X4.2283Y-5.0866
X4.2362Y-3.6654
X4.2382Y-2.7343
X4.2402Y-3.6181
X4.2441Y-3.5472
X4.2539Y-4.75
X4.2598Y-2.0433
X4.2598Y-2.3819
X4.2638Y-4.6732
X4.2756Y-4.8307
X4.2876Y-2.7244
X4.3071Y-5.0236
X4.313Y-3.5709
X4.3543Y-3.7894
X4.3583Y-2.2283
X4.3622Y-4.5551
X4.3701Y-3.9449
X4.3839Y-3.5217
X4.3898Y-3.0
X4.3976Y-2.8898
X4.4094Y-2.0433
X4.4303Y-2.8909
X4.4311Y-3.5217
X4.437Y-4.4764
X4.4409Y-4.9213
X4.4624Y-2.6417
X4.4961Y-3.5689
X4.5079Y-2.189
X4.5079Y-2.4094
X4.5315Y-3.4016
X4.5472Y-3.6043
X4.5709Y-3.5413
X4.5728Y-3.4941
X4.6142Y-2.8661
X4.6713Y-3.9528
X4.7008Y-3.878
X4.7008Y-4.1378
X4.7126Y-3.4528
X4.7165Y-3.5393
X4.7598Y-3.5984
X4.8543Y-3.8937
X4.8583Y-3.8031
X4.9035Y-3.9311
X4.9567Y-3.3012
X4.9567Y-3.3799
X4.9685Y-4.6654
X5.0157Y-3.4154
X5.0157Y-3.7992
X5.0177Y-3.75
X5.0197Y-3.8898
X5.0472Y-3.4746
X5.0472Y-3.6142
X5.0512Y-3.7165
X5.063Y-3.5394
X5.0669Y-3.8465
X5.0787Y-3.5787
X5.1024Y-3.4764
X5.1299Y-3.9016
X5.1378Y-3.4173
X5.1496Y-2.8346
X5.1526Y-4.0581
X5.1772Y-3.9016
X5.185Y-3.4173
X5.189Y-3.5512
X5.1969Y-4.0748
X5.2244Y-3.9016
X5.2323Y-3.4173
X5.2362Y-4.0315
X5.2559Y-3.8701
X5.2717Y-4.622
X5.2756Y-2.5787
X5.2835Y-4.0315
X5.3031Y-3.8583
X5.311Y-3.2953
X5.3228Y-3.8937
X5.3346Y-4.0315
X5.3406Y-3.2559
X5.3504Y-3.1102
X5.3622Y-3.9055
X5.3701Y-3.2972
X5.3957Y-3.439
X5.4016Y-3.8898
X5.4075Y-3.1667
X5.408Y-3.2992
X5.4094Y-4.2913
X5.4114Y-3.2008
X5.4154Y-3.126
X5.4311Y-3.2343
X5.4409Y-3.9091
X5.4606Y-3.2677
X5.4724Y-3.4213
X5.4803Y-4.3543
X5.4843Y-3.7717
X5.4843Y-3.8307
X5.4882Y-2.8858
X5.4921Y-3.4685
X5.4961Y-3.2913
X5.511Y-2.631
X5.5295Y-4.0
X5.5354Y-3.0236
X5.5374Y-4.2343
X5.5433Y-4.1063
X5.5512Y-3.2874
X5.5512Y-4.1496
X5.563Y-4.0354
X5.5642Y-2.5424
X5.5835Y-4.3041
X5.5886Y-3.3839
X5.5906Y-3.0315
X5.6142Y-3.0945
X5.622Y-4.188
X5.6256Y-2.378
X5.6299Y-3.7835
X5.6417Y-2.6743
X5.6457Y-2.7598
X5.6496Y-3.9213
X5.6535Y-3.189
X5.6575Y-4.0787
X5.6689Y-2.3804
X5.6713Y-3.1476
X5.6732Y-3.815
X5.685Y-4.0
X5.689Y-2.9646
X5.689Y-3.3425
X5.7067Y-4.0827
X5.7201Y-2.6743
X5.7205Y-3.2008
X5.7211Y-3.8424
X5.7283Y-3.248
X5.7362Y-4.2874
X5.752Y-4.1299
X5.7555Y-2.3804
X5.7984Y-2.6743
X5.7988Y-2.3819
X5.815Y-3.248
X5.8386Y-4.4252
X5.8421Y-2.3804
X5.8768Y-2.6743
X5.8854Y-2.3804
X5.9287Y-2.3804
X5.9449Y-3.7756
X5.9449Y-3.8613
X5.9551Y-2.6743
X5.9606Y-3.5945
X5.9606Y-3.685
X5.9623Y-3.3504
X5.9623Y-3.4449
X5.9623Y-3.821
X5.9623Y-3.9016
X5.9623Y-3.9803
X6.0071Y-2.5838
X6.0866Y-4.0295
X6.0945Y-3.8189
X6.1417Y-3.7707
X6.1811Y-2.9449
X6.2205Y-4.0039
X6.2283Y-2.9449
X6.2283Y-3.0472
X6.2441Y-3.7323
X6.2539Y-4.0394
X6.2736Y-4.0925
X6.2756Y-2.9449
X6.2874Y-3.7283
X6.2953Y-3.4219
X6.3189Y-3.622
X6.3228Y-3.6811
X6.3232Y-2.376
X6.3251Y-2.4508
X6.3346Y-3.378
X6.3386Y-4.4016
X6.3622Y-3.7756
X6.3622Y-3.8268
X6.3661Y-3.8937
X6.3661Y-3.9331
X6.4016Y-3.1024
X6.4016Y-3.1417
X6.4016Y-3.1811
X6.4016Y-3.2205
X6.4055Y-3.8465
X6.4104Y-2.3819
X6.4104Y-2.4409
X6.4331Y-2.689
X6.5962Y-4.1655
X6.628Y-3.9902
X6.6339Y-3.1417
X6.6614Y-2.811
X6.6702Y-2.3957
X6.6702Y-2.4291
X6.6772Y-3.7874
X6.685Y-3.1417
X6.7037Y-2.4134
X6.7756Y-3.9902
T3
X5.4244Y-4.7917
X5.5535Y-4.95
X5.6283Y-4.9535
X5.6287Y-5.0146
X6.0744Y-4.7811
X6.2252Y-4.9425
X6.3Y-4.9461
X6.3004Y-5.0071
T4
X4.8877Y-2.7776
X4.8877Y-2.8276
X4.8877Y-2.8776
X4.8877Y-2.9276
X4.8877Y-2.9776
X4.8877Y-3.0276
X4.8877Y-3.0776
X4.8877Y-3.1276
T5
X6.7064Y-4.1651
X6.7064Y-4.2651
X6.7064Y-4.3651
X6.7064Y-4.4651
T6
X3.6633Y-5.3451
X3.8159Y-1.971
X6.7165Y-1.9726
X6.8138Y-5.3437
M30
