%TF.GenerationSoftware,KiCad,Pcbnew,8.0.7*%
%TF.CreationDate,2025-02-06T16:30:48-03:00*%
%TF.ProjectId,adcs_board,61646373-5f62-46f6-9172-642e6b696361,1.0*%
%TF.SameCoordinates,Original*%
%TF.FileFunction,Soldermask,Bot*%
%TF.FilePolarity,Negative*%
%FSLAX46Y46*%
G04 Gerber Fmt 4.6, Leading zero omitted, Abs format (unit mm)*
G04 Created by KiCad (PCBNEW 8.0.7) date 2025-02-06 16:30:48*
%MOMM*%
%LPD*%
G01*
G04 APERTURE LIST*
G04 Aperture macros list*
%AMRoundRect*
0 Rectangle with rounded corners*
0 $1 Rounding radius*
0 $2 $3 $4 $5 $6 $7 $8 $9 X,Y pos of 4 corners*
0 Add a 4 corners polygon primitive as box body*
4,1,4,$2,$3,$4,$5,$6,$7,$8,$9,$2,$3,0*
0 Add four circle primitives for the rounded corners*
1,1,$1+$1,$2,$3*
1,1,$1+$1,$4,$5*
1,1,$1+$1,$6,$7*
1,1,$1+$1,$8,$9*
0 Add four rect primitives between the rounded corners*
20,1,$1+$1,$2,$3,$4,$5,0*
20,1,$1+$1,$4,$5,$6,$7,0*
20,1,$1+$1,$6,$7,$8,$9,0*
20,1,$1+$1,$8,$9,$2,$3,0*%
G04 Aperture macros list end*
%ADD10C,5.600000*%
%ADD11C,1.016000*%
%ADD12C,0.499999*%
%ADD13C,1.724000*%
%ADD14RoundRect,0.155000X0.155000X-0.212500X0.155000X0.212500X-0.155000X0.212500X-0.155000X-0.212500X0*%
%ADD15RoundRect,0.155000X-0.155000X0.212500X-0.155000X-0.212500X0.155000X-0.212500X0.155000X0.212500X0*%
%ADD16RoundRect,0.155000X0.212500X0.155000X-0.212500X0.155000X-0.212500X-0.155000X0.212500X-0.155000X0*%
%ADD17R,1.257300X0.508000*%
%ADD18RoundRect,0.160000X-0.160000X0.197500X-0.160000X-0.197500X0.160000X-0.197500X0.160000X0.197500X0*%
%ADD19RoundRect,0.102000X-1.000000X0.375000X-1.000000X-0.375000X1.000000X-0.375000X1.000000X0.375000X0*%
%ADD20RoundRect,0.102000X-1.050000X2.800000X-1.050000X-2.800000X1.050000X-2.800000X1.050000X2.800000X0*%
%ADD21RoundRect,0.160000X-0.197500X-0.160000X0.197500X-0.160000X0.197500X0.160000X-0.197500X0.160000X0*%
%ADD22R,0.558800X2.159000*%
%ADD23RoundRect,0.102000X0.375000X1.000000X-0.375000X1.000000X-0.375000X-1.000000X0.375000X-1.000000X0*%
%ADD24R,0.254000X0.609600*%
%ADD25R,0.609600X0.254000*%
%ADD26R,2.692400X2.692400*%
%ADD27RoundRect,0.155000X-0.212500X-0.155000X0.212500X-0.155000X0.212500X0.155000X-0.212500X0.155000X0*%
%ADD28R,0.508000X0.406400*%
%ADD29R,0.406400X0.508000*%
%ADD30RoundRect,0.160000X0.197500X0.160000X-0.197500X0.160000X-0.197500X-0.160000X0.197500X-0.160000X0*%
%ADD31RoundRect,0.100500X0.301500X-0.986500X0.301500X0.986500X-0.301500X0.986500X-0.301500X-0.986500X0*%
%ADD32RoundRect,0.160000X0.160000X-0.197500X0.160000X0.197500X-0.160000X0.197500X-0.160000X-0.197500X0*%
G04 APERTURE END LIST*
D10*
%TO.C,H6*%
X170600000Y-50103500D03*
%TD*%
D11*
%TO.C,U27*%
X124146666Y-79440383D03*
X124146666Y-78170383D03*
X124146666Y-76900383D03*
X124146666Y-75630383D03*
X124146666Y-74360383D03*
X124146666Y-73090383D03*
X124146666Y-71820383D03*
X124146666Y-70550383D03*
%TD*%
D12*
%TO.C,U23*%
X159500000Y-98100000D03*
X158174999Y-99425001D03*
X158174999Y-98100000D03*
X158174999Y-96774999D03*
X156849998Y-98100000D03*
%TD*%
D10*
%TO.C,H7*%
X93048000Y-135765000D03*
%TD*%
D13*
%TO.C,J8*%
X170342500Y-113412500D03*
X170342500Y-110872500D03*
X170342500Y-108332500D03*
X170342500Y-105792500D03*
%TD*%
D12*
%TO.C,U28*%
X110550000Y-92850001D03*
X111875001Y-91525000D03*
X111875001Y-92850001D03*
X111875001Y-94175002D03*
X113200002Y-92850001D03*
%TD*%
D10*
%TO.C,H5*%
X96924000Y-50063500D03*
%TD*%
%TO.C,H8*%
X173070000Y-135729700D03*
%TD*%
D14*
%TO.C,C2*%
X144500000Y-77512500D03*
X144500000Y-76377500D03*
%TD*%
D15*
%TO.C,C101*%
X141300000Y-87232500D03*
X141300000Y-88367500D03*
%TD*%
D14*
%TO.C,C70*%
X145174999Y-111789500D03*
X145174999Y-110654500D03*
%TD*%
D16*
%TO.C,C76*%
X157067500Y-100500000D03*
X155932500Y-100500000D03*
%TD*%
D17*
%TO.C,U4*%
X100000000Y-128500000D03*
X100000000Y-127230000D03*
X100000000Y-125960000D03*
X100000000Y-124690000D03*
X105245100Y-124690000D03*
X105245100Y-125960000D03*
X105245100Y-127230000D03*
X105245100Y-128500000D03*
%TD*%
D18*
%TO.C,R77*%
X101846666Y-76259983D03*
X101846666Y-77454983D03*
%TD*%
D19*
%TO.C,T3*%
X135260700Y-107695000D03*
X135260700Y-108965000D03*
X135260700Y-110235000D03*
X135260700Y-111505000D03*
X129139300Y-111505000D03*
X129139300Y-110235000D03*
X129139300Y-108965000D03*
X129139300Y-107695000D03*
%TD*%
D20*
%TO.C,Y1*%
X149500000Y-75250000D03*
X149500000Y-84750000D03*
%TD*%
D14*
%TO.C,C75*%
X156300000Y-93077500D03*
X156300000Y-91942500D03*
%TD*%
D15*
%TO.C,C3*%
X144500000Y-82487500D03*
X144500000Y-83622500D03*
%TD*%
D21*
%TO.C,R35*%
X152502500Y-91310000D03*
X153697500Y-91310000D03*
%TD*%
D15*
%TO.C,C93*%
X157300000Y-105332500D03*
X157300000Y-106467500D03*
%TD*%
D22*
%TO.C,U29*%
X108306666Y-71684283D03*
X109576666Y-71684283D03*
X110846666Y-71684283D03*
X112116666Y-71684283D03*
X113386666Y-71684283D03*
X114656666Y-71684283D03*
X115926666Y-71684283D03*
X115926666Y-78440683D03*
X114656666Y-78440683D03*
X113386666Y-78440683D03*
X112116666Y-78440683D03*
X110846666Y-78440683D03*
X109576666Y-78440683D03*
X108306666Y-78440683D03*
%TD*%
D23*
%TO.C,T4*%
X153505000Y-112360700D03*
X152235000Y-112360700D03*
X150965000Y-112360700D03*
X149695000Y-112360700D03*
X149695000Y-106239300D03*
X150965000Y-106239300D03*
X152235000Y-106239300D03*
X153505000Y-106239300D03*
%TD*%
D15*
%TO.C,C97*%
X157300000Y-111870000D03*
X157300000Y-113005000D03*
%TD*%
D24*
%TO.C,U1*%
X139499999Y-78607700D03*
X140000001Y-78607700D03*
X140500000Y-78607700D03*
X140999999Y-78607700D03*
X141500001Y-78607700D03*
D25*
X142392300Y-79499999D03*
X142392300Y-80000001D03*
X142392300Y-80500000D03*
X142392300Y-80999999D03*
X142392300Y-81500001D03*
D24*
X141500001Y-82392300D03*
X140999999Y-82392300D03*
X140500000Y-82392300D03*
X140000001Y-82392300D03*
X139499999Y-82392300D03*
D25*
X138607700Y-81500001D03*
X138607700Y-80999999D03*
X138607700Y-80500000D03*
X138607700Y-80000001D03*
X138607700Y-79499999D03*
D26*
X140500000Y-80500000D03*
%TD*%
D21*
%TO.C,R70*%
X105502500Y-91802501D03*
X106697500Y-91802501D03*
%TD*%
D27*
%TO.C,C81*%
X169582500Y-101350000D03*
X170717500Y-101350000D03*
%TD*%
D28*
%TO.C,U19*%
X141922000Y-107674999D03*
X141922000Y-107025001D03*
X141922000Y-106374999D03*
X141922000Y-105725001D03*
D29*
X142725001Y-104922000D03*
X143374999Y-104922000D03*
X144025001Y-104922000D03*
X144674999Y-104922000D03*
D28*
X145478000Y-105725001D03*
X145478000Y-106374999D03*
X145478000Y-107025001D03*
X145478000Y-107674999D03*
D29*
X144674999Y-108478000D03*
X144025001Y-108478000D03*
X143374999Y-108478000D03*
X142725001Y-108478000D03*
%TD*%
D27*
%TO.C,C91*%
X128097500Y-117370000D03*
X129232500Y-117370000D03*
%TD*%
%TO.C,C95*%
X135032500Y-115030000D03*
X136167500Y-115030000D03*
%TD*%
D30*
%TO.C,R63*%
X153697500Y-95800000D03*
X152502500Y-95800000D03*
%TD*%
D16*
%TO.C,C78*%
X157067500Y-102400000D03*
X155932500Y-102400000D03*
%TD*%
D31*
%TO.C,U22*%
X141905000Y-74970000D03*
X140635000Y-74970000D03*
X139365000Y-74970000D03*
X138095000Y-74970000D03*
X138095000Y-70030000D03*
X139365000Y-70030000D03*
X140635000Y-70030000D03*
X141905000Y-70030000D03*
%TD*%
D16*
%TO.C,C99*%
X126367500Y-87600000D03*
X125232500Y-87600000D03*
%TD*%
D30*
%TO.C,R64*%
X153695000Y-98100000D03*
X152500000Y-98100000D03*
%TD*%
D14*
%TO.C,C71*%
X142994999Y-111809500D03*
X142994999Y-110674500D03*
%TD*%
D17*
%TO.C,U2*%
X100000000Y-121202500D03*
X100000000Y-119932500D03*
X100000000Y-118662500D03*
X100000000Y-117392500D03*
X105245100Y-117392500D03*
X105245100Y-118662500D03*
X105245100Y-119932500D03*
X105245100Y-121202500D03*
%TD*%
D14*
%TO.C,C73*%
X158700000Y-93077500D03*
X158700000Y-91942500D03*
%TD*%
D16*
%TO.C,C1*%
X132867500Y-85650000D03*
X131732500Y-85650000D03*
%TD*%
D27*
%TO.C,C5*%
X135032500Y-84850000D03*
X136167500Y-84850000D03*
%TD*%
D30*
%TO.C,R90*%
X136177500Y-117400000D03*
X134982500Y-117400000D03*
%TD*%
D16*
%TO.C,C96*%
X114479166Y-68262483D03*
X113344166Y-68262483D03*
%TD*%
D17*
%TO.C,U3*%
X100000000Y-113905000D03*
X100000000Y-112635000D03*
X100000000Y-111365000D03*
X100000000Y-110095000D03*
X105245100Y-110095000D03*
X105245100Y-111365000D03*
X105245100Y-112635000D03*
X105245100Y-113905000D03*
%TD*%
D21*
%TO.C,R91*%
X109121666Y-66062483D03*
X110316666Y-66062483D03*
%TD*%
D27*
%TO.C,C98*%
X141732500Y-101650000D03*
X142867500Y-101650000D03*
%TD*%
D30*
%TO.C,R72*%
X106697500Y-96400000D03*
X105502500Y-96400000D03*
%TD*%
D15*
%TO.C,C94*%
X159600000Y-105332500D03*
X159600000Y-106467500D03*
%TD*%
D27*
%TO.C,C92*%
X128097500Y-115000000D03*
X129232500Y-115000000D03*
%TD*%
D32*
%TO.C,R92*%
X159600000Y-113035000D03*
X159600000Y-111840000D03*
%TD*%
D21*
%TO.C,R53*%
X152505000Y-93600000D03*
X153700000Y-93600000D03*
%TD*%
D32*
%TO.C,R32*%
X140804999Y-111819500D03*
X140804999Y-110624500D03*
%TD*%
D18*
%TO.C,R78*%
X101846666Y-72686783D03*
X101846666Y-73881783D03*
%TD*%
D21*
%TO.C,R71*%
X105502500Y-93792501D03*
X106697500Y-93792501D03*
%TD*%
%TO.C,R69*%
X105502500Y-89812501D03*
X106697500Y-89812501D03*
%TD*%
D30*
%TO.C,R93*%
X110316666Y-68262483D03*
X109121666Y-68262483D03*
%TD*%
M02*
