%TF.GenerationSoftware,KiCad,Pcbnew,8.0.7*%
%TF.CreationDate,2025-02-06T16:30:48-03:00*%
%TF.ProjectId,adcs_board,61646373-5f62-46f6-9172-642e6b696361,1.0*%
%TF.SameCoordinates,Original*%
%TF.FileFunction,Legend,Bot*%
%TF.FilePolarity,Positive*%
%FSLAX46Y46*%
G04 Gerber Fmt 4.6, Leading zero omitted, Abs format (unit mm)*
G04 Created by KiCad (PCBNEW 8.0.7) date 2025-02-06 16:30:48*
%MOMM*%
%LPD*%
G01*
G04 APERTURE LIST*
%ADD10C,0.200000*%
%ADD11C,0.150000*%
%ADD12C,0.508000*%
%ADD13C,0.120000*%
%ADD14C,0.152400*%
%ADD15C,0.250000*%
%ADD16C,0.127000*%
%ADD17C,0.000000*%
G04 APERTURE END LIST*
G36*
X126700000Y-128400000D02*
G01*
X129600000Y-128400000D01*
X129600000Y-131200000D01*
X126700000Y-131200000D01*
X126700000Y-128400000D01*
G37*
G36*
X110250000Y-132100000D02*
G01*
X129750000Y-132100000D01*
X129750000Y-135500000D01*
X110250000Y-135500000D01*
X110250000Y-132100000D01*
G37*
D10*
G36*
X125745394Y-130645000D02*
G01*
X125440579Y-130645000D01*
X125440579Y-130011922D01*
X125378663Y-130011922D01*
X125372147Y-130011938D01*
X125297529Y-130015148D01*
X125225157Y-130028775D01*
X125192515Y-130043738D01*
X125133565Y-130091057D01*
X125107302Y-130121625D01*
X125061399Y-130182440D01*
X125014218Y-130249176D01*
X124972732Y-130309776D01*
X124752180Y-130645000D01*
X124387281Y-130645000D01*
X124571929Y-130348244D01*
X124611299Y-130285424D01*
X124653258Y-130221771D01*
X124695974Y-130161734D01*
X124745586Y-130101315D01*
X124784403Y-130063058D01*
X124844724Y-130014844D01*
X124908618Y-129973454D01*
X124884139Y-129969468D01*
X124804570Y-129950447D01*
X124734503Y-129923537D01*
X124666062Y-129883122D01*
X124610031Y-129832404D01*
X124566273Y-129772778D01*
X124535018Y-129705642D01*
X124516265Y-129630995D01*
X124511045Y-129562393D01*
X124824354Y-129562393D01*
X124827395Y-129601885D01*
X124855495Y-129673401D01*
X124877055Y-129698568D01*
X124940858Y-129736050D01*
X124984605Y-129744728D01*
X125063802Y-129751039D01*
X125138400Y-129753370D01*
X125214898Y-129754002D01*
X125440579Y-129754002D01*
X125440579Y-129378845D01*
X125202442Y-129378845D01*
X125128438Y-129379090D01*
X125054156Y-129380127D01*
X124980059Y-129383974D01*
X124925194Y-129399360D01*
X124865020Y-129441859D01*
X124837221Y-129487470D01*
X124824354Y-129562393D01*
X124511045Y-129562393D01*
X124510013Y-129548838D01*
X124510271Y-129532012D01*
X124519287Y-129451448D01*
X124541183Y-129376822D01*
X124575959Y-129308136D01*
X124621468Y-129248681D01*
X124681446Y-129197743D01*
X124751814Y-129161957D01*
X124789284Y-129150136D01*
X124862706Y-129135390D01*
X124940549Y-129126694D01*
X125017374Y-129122367D01*
X125103524Y-129120924D01*
X125745394Y-129120924D01*
X125745394Y-130645000D01*
G37*
G36*
X123842661Y-129520134D02*
G01*
X123919846Y-129529214D01*
X123991725Y-129549191D01*
X124058298Y-129580064D01*
X124119564Y-129621834D01*
X124175523Y-129674501D01*
X124208839Y-129715007D01*
X124250484Y-129782721D01*
X124282135Y-129858782D01*
X124303790Y-129943189D01*
X124314202Y-130019903D01*
X124317672Y-130102414D01*
X124313873Y-130185387D01*
X124302474Y-130262847D01*
X124283476Y-130334795D01*
X124251707Y-130411766D01*
X124209595Y-130481235D01*
X124163144Y-130535168D01*
X124097817Y-130587821D01*
X124022031Y-130627311D01*
X123950887Y-130650164D01*
X123872480Y-130663876D01*
X123786810Y-130668447D01*
X123710843Y-130664730D01*
X123631107Y-130651381D01*
X123558928Y-130628323D01*
X123486758Y-130590778D01*
X123443962Y-130559016D01*
X123388269Y-130502002D01*
X123342777Y-130433745D01*
X123310903Y-130363632D01*
X123599598Y-130316737D01*
X123620653Y-130366523D01*
X123669940Y-130424082D01*
X123711014Y-130445668D01*
X123783879Y-130457421D01*
X123820227Y-130454819D01*
X123891026Y-130431331D01*
X123950942Y-130383415D01*
X123989459Y-130325523D01*
X124012824Y-130253605D01*
X124020917Y-130176053D01*
X123295516Y-130176053D01*
X123295271Y-130155384D01*
X123297174Y-130076063D01*
X123305654Y-129988475D01*
X123583112Y-129988475D01*
X124015788Y-129988475D01*
X124013254Y-129938749D01*
X123994878Y-129864517D01*
X123954972Y-129799797D01*
X123938983Y-129783568D01*
X123875000Y-129743808D01*
X123798534Y-129730554D01*
X123782145Y-129731134D01*
X123707254Y-129751420D01*
X123647958Y-129796500D01*
X123615021Y-129843426D01*
X123590704Y-129915417D01*
X123583112Y-129988475D01*
X123305654Y-129988475D01*
X123306042Y-129984463D01*
X123322118Y-129901253D01*
X123345404Y-129826433D01*
X123382864Y-129747723D01*
X123430704Y-129681095D01*
X123458056Y-129652221D01*
X123518188Y-129602994D01*
X123585559Y-129565127D01*
X123660169Y-129538620D01*
X123742017Y-129523473D01*
X123815753Y-129519528D01*
X123842661Y-129520134D01*
G37*
G36*
X122764288Y-130645000D02*
G01*
X123205390Y-129542976D01*
X122901308Y-129542976D01*
X122695411Y-130105345D01*
X122635694Y-130293290D01*
X122612796Y-130222879D01*
X122605652Y-130198768D01*
X122582983Y-130128769D01*
X122574877Y-130105345D01*
X122366782Y-129542976D01*
X122068928Y-129542976D01*
X122503803Y-130645000D01*
X122764288Y-130645000D01*
G37*
G36*
X120634979Y-130645000D02*
G01*
X120924406Y-130645000D01*
X120924406Y-129542243D01*
X120985891Y-129598958D01*
X121051369Y-129649851D01*
X121120839Y-129694922D01*
X121194302Y-129734172D01*
X121271758Y-129767600D01*
X121298464Y-129777449D01*
X121298464Y-129496081D01*
X121225778Y-129467044D01*
X121157057Y-129430020D01*
X121093344Y-129388449D01*
X121052267Y-129358328D01*
X120990993Y-129305297D01*
X120940160Y-129248053D01*
X120899768Y-129186595D01*
X120869818Y-129120924D01*
X120634979Y-129120924D01*
X120634979Y-130645000D01*
G37*
G36*
X120146249Y-130645000D02*
G01*
X120146249Y-130363632D01*
X119856454Y-130363632D01*
X119856454Y-130645000D01*
X120146249Y-130645000D01*
G37*
G36*
X119201301Y-129124708D02*
G01*
X119274528Y-129139236D01*
X119351364Y-129169958D01*
X119418944Y-129215512D01*
X119477267Y-129275896D01*
X119520013Y-129340593D01*
X119555513Y-129416989D01*
X119578697Y-129486530D01*
X119597245Y-129563558D01*
X119611155Y-129648074D01*
X119620429Y-129740077D01*
X119624341Y-129813993D01*
X119625645Y-129892121D01*
X119625513Y-129919132D01*
X119623538Y-129997044D01*
X119617219Y-130093644D01*
X119606686Y-130181921D01*
X119591939Y-130261874D01*
X119567582Y-130350111D01*
X119536641Y-130425343D01*
X119490823Y-130498454D01*
X119473591Y-130519039D01*
X119417894Y-130572826D01*
X119356194Y-130614660D01*
X119288493Y-130644542D01*
X119214789Y-130662470D01*
X119135083Y-130668447D01*
X119068971Y-130664663D01*
X118995847Y-130650135D01*
X118919099Y-130619413D01*
X118851571Y-130573859D01*
X118793265Y-130513475D01*
X118750520Y-130448724D01*
X118715019Y-130372167D01*
X118691835Y-130302420D01*
X118673288Y-130225117D01*
X118659378Y-130140258D01*
X118650104Y-130047843D01*
X118646192Y-129973573D01*
X118644888Y-129895052D01*
X118947505Y-129895052D01*
X118947974Y-129957277D01*
X118950439Y-130041812D01*
X118955015Y-130115786D01*
X118963024Y-130188741D01*
X118977547Y-130261416D01*
X118996987Y-130317126D01*
X119041294Y-130377920D01*
X119062681Y-130392185D01*
X119135083Y-130410526D01*
X119160568Y-130408534D01*
X119228506Y-130378653D01*
X119269851Y-130322097D01*
X119295917Y-130250059D01*
X119305006Y-130208109D01*
X119314200Y-130134504D01*
X119319501Y-130053533D01*
X119322009Y-129971822D01*
X119322662Y-129895052D01*
X119322192Y-129832896D01*
X119319728Y-129748377D01*
X119315151Y-129674317D01*
X119307142Y-129601133D01*
X119292620Y-129527955D01*
X119273180Y-129472245D01*
X119228872Y-129411451D01*
X119207486Y-129397186D01*
X119135083Y-129378845D01*
X119109621Y-129380882D01*
X119042027Y-129411451D01*
X119000386Y-129468419D01*
X118974249Y-129540778D01*
X118965160Y-129582590D01*
X118955967Y-129656012D01*
X118950665Y-129736823D01*
X118948158Y-129818396D01*
X118947505Y-129895052D01*
X118644888Y-129895052D01*
X118645463Y-129842152D01*
X118648484Y-129766388D01*
X118656538Y-129672061D01*
X118669195Y-129585381D01*
X118686454Y-129506349D01*
X118714500Y-129418315D01*
X118749737Y-129342230D01*
X118792166Y-129278094D01*
X118841952Y-129224681D01*
X118908500Y-129176333D01*
X118984164Y-129143026D01*
X119056275Y-129126450D01*
X119135083Y-129120924D01*
X119201301Y-129124708D01*
G37*
D11*
X146359580Y-76778333D02*
X146407200Y-76730714D01*
X146407200Y-76730714D02*
X146454819Y-76587857D01*
X146454819Y-76587857D02*
X146454819Y-76492619D01*
X146454819Y-76492619D02*
X146407200Y-76349762D01*
X146407200Y-76349762D02*
X146311961Y-76254524D01*
X146311961Y-76254524D02*
X146216723Y-76206905D01*
X146216723Y-76206905D02*
X146026247Y-76159286D01*
X146026247Y-76159286D02*
X145883390Y-76159286D01*
X145883390Y-76159286D02*
X145692914Y-76206905D01*
X145692914Y-76206905D02*
X145597676Y-76254524D01*
X145597676Y-76254524D02*
X145502438Y-76349762D01*
X145502438Y-76349762D02*
X145454819Y-76492619D01*
X145454819Y-76492619D02*
X145454819Y-76587857D01*
X145454819Y-76587857D02*
X145502438Y-76730714D01*
X145502438Y-76730714D02*
X145550057Y-76778333D01*
X145550057Y-77159286D02*
X145502438Y-77206905D01*
X145502438Y-77206905D02*
X145454819Y-77302143D01*
X145454819Y-77302143D02*
X145454819Y-77540238D01*
X145454819Y-77540238D02*
X145502438Y-77635476D01*
X145502438Y-77635476D02*
X145550057Y-77683095D01*
X145550057Y-77683095D02*
X145645295Y-77730714D01*
X145645295Y-77730714D02*
X145740533Y-77730714D01*
X145740533Y-77730714D02*
X145883390Y-77683095D01*
X145883390Y-77683095D02*
X146454819Y-77111667D01*
X146454819Y-77111667D02*
X146454819Y-77730714D01*
X141709580Y-89780952D02*
X141757200Y-89733333D01*
X141757200Y-89733333D02*
X141804819Y-89590476D01*
X141804819Y-89590476D02*
X141804819Y-89495238D01*
X141804819Y-89495238D02*
X141757200Y-89352381D01*
X141757200Y-89352381D02*
X141661961Y-89257143D01*
X141661961Y-89257143D02*
X141566723Y-89209524D01*
X141566723Y-89209524D02*
X141376247Y-89161905D01*
X141376247Y-89161905D02*
X141233390Y-89161905D01*
X141233390Y-89161905D02*
X141042914Y-89209524D01*
X141042914Y-89209524D02*
X140947676Y-89257143D01*
X140947676Y-89257143D02*
X140852438Y-89352381D01*
X140852438Y-89352381D02*
X140804819Y-89495238D01*
X140804819Y-89495238D02*
X140804819Y-89590476D01*
X140804819Y-89590476D02*
X140852438Y-89733333D01*
X140852438Y-89733333D02*
X140900057Y-89780952D01*
X141804819Y-90733333D02*
X141804819Y-90161905D01*
X141804819Y-90447619D02*
X140804819Y-90447619D01*
X140804819Y-90447619D02*
X140947676Y-90352381D01*
X140947676Y-90352381D02*
X141042914Y-90257143D01*
X141042914Y-90257143D02*
X141090533Y-90161905D01*
X140804819Y-91352381D02*
X140804819Y-91447619D01*
X140804819Y-91447619D02*
X140852438Y-91542857D01*
X140852438Y-91542857D02*
X140900057Y-91590476D01*
X140900057Y-91590476D02*
X140995295Y-91638095D01*
X140995295Y-91638095D02*
X141185771Y-91685714D01*
X141185771Y-91685714D02*
X141423866Y-91685714D01*
X141423866Y-91685714D02*
X141614342Y-91638095D01*
X141614342Y-91638095D02*
X141709580Y-91590476D01*
X141709580Y-91590476D02*
X141757200Y-91542857D01*
X141757200Y-91542857D02*
X141804819Y-91447619D01*
X141804819Y-91447619D02*
X141804819Y-91352381D01*
X141804819Y-91352381D02*
X141757200Y-91257143D01*
X141757200Y-91257143D02*
X141709580Y-91209524D01*
X141709580Y-91209524D02*
X141614342Y-91161905D01*
X141614342Y-91161905D02*
X141423866Y-91114286D01*
X141423866Y-91114286D02*
X141185771Y-91114286D01*
X141185771Y-91114286D02*
X140995295Y-91161905D01*
X140995295Y-91161905D02*
X140900057Y-91209524D01*
X140900057Y-91209524D02*
X140852438Y-91257143D01*
X140852438Y-91257143D02*
X140804819Y-91352381D01*
X141804819Y-92638095D02*
X141804819Y-92066667D01*
X141804819Y-92352381D02*
X140804819Y-92352381D01*
X140804819Y-92352381D02*
X140947676Y-92257143D01*
X140947676Y-92257143D02*
X141042914Y-92161905D01*
X141042914Y-92161905D02*
X141090533Y-92066667D01*
X146634579Y-110579142D02*
X146682199Y-110531523D01*
X146682199Y-110531523D02*
X146729818Y-110388666D01*
X146729818Y-110388666D02*
X146729818Y-110293428D01*
X146729818Y-110293428D02*
X146682199Y-110150571D01*
X146682199Y-110150571D02*
X146586960Y-110055333D01*
X146586960Y-110055333D02*
X146491722Y-110007714D01*
X146491722Y-110007714D02*
X146301246Y-109960095D01*
X146301246Y-109960095D02*
X146158389Y-109960095D01*
X146158389Y-109960095D02*
X145967913Y-110007714D01*
X145967913Y-110007714D02*
X145872675Y-110055333D01*
X145872675Y-110055333D02*
X145777437Y-110150571D01*
X145777437Y-110150571D02*
X145729818Y-110293428D01*
X145729818Y-110293428D02*
X145729818Y-110388666D01*
X145729818Y-110388666D02*
X145777437Y-110531523D01*
X145777437Y-110531523D02*
X145825056Y-110579142D01*
X145729818Y-110912476D02*
X145729818Y-111579142D01*
X145729818Y-111579142D02*
X146729818Y-111150571D01*
X145729818Y-112150571D02*
X145729818Y-112245809D01*
X145729818Y-112245809D02*
X145777437Y-112341047D01*
X145777437Y-112341047D02*
X145825056Y-112388666D01*
X145825056Y-112388666D02*
X145920294Y-112436285D01*
X145920294Y-112436285D02*
X146110770Y-112483904D01*
X146110770Y-112483904D02*
X146348865Y-112483904D01*
X146348865Y-112483904D02*
X146539341Y-112436285D01*
X146539341Y-112436285D02*
X146634579Y-112388666D01*
X146634579Y-112388666D02*
X146682199Y-112341047D01*
X146682199Y-112341047D02*
X146729818Y-112245809D01*
X146729818Y-112245809D02*
X146729818Y-112150571D01*
X146729818Y-112150571D02*
X146682199Y-112055333D01*
X146682199Y-112055333D02*
X146634579Y-112007714D01*
X146634579Y-112007714D02*
X146539341Y-111960095D01*
X146539341Y-111960095D02*
X146348865Y-111912476D01*
X146348865Y-111912476D02*
X146110770Y-111912476D01*
X146110770Y-111912476D02*
X145920294Y-111960095D01*
X145920294Y-111960095D02*
X145825056Y-112007714D01*
X145825056Y-112007714D02*
X145777437Y-112055333D01*
X145777437Y-112055333D02*
X145729818Y-112150571D01*
X157142857Y-99759580D02*
X157190476Y-99807200D01*
X157190476Y-99807200D02*
X157333333Y-99854819D01*
X157333333Y-99854819D02*
X157428571Y-99854819D01*
X157428571Y-99854819D02*
X157571428Y-99807200D01*
X157571428Y-99807200D02*
X157666666Y-99711961D01*
X157666666Y-99711961D02*
X157714285Y-99616723D01*
X157714285Y-99616723D02*
X157761904Y-99426247D01*
X157761904Y-99426247D02*
X157761904Y-99283390D01*
X157761904Y-99283390D02*
X157714285Y-99092914D01*
X157714285Y-99092914D02*
X157666666Y-98997676D01*
X157666666Y-98997676D02*
X157571428Y-98902438D01*
X157571428Y-98902438D02*
X157428571Y-98854819D01*
X157428571Y-98854819D02*
X157333333Y-98854819D01*
X157333333Y-98854819D02*
X157190476Y-98902438D01*
X157190476Y-98902438D02*
X157142857Y-98950057D01*
X156809523Y-98854819D02*
X156142857Y-98854819D01*
X156142857Y-98854819D02*
X156571428Y-99854819D01*
X155333333Y-98854819D02*
X155523809Y-98854819D01*
X155523809Y-98854819D02*
X155619047Y-98902438D01*
X155619047Y-98902438D02*
X155666666Y-98950057D01*
X155666666Y-98950057D02*
X155761904Y-99092914D01*
X155761904Y-99092914D02*
X155809523Y-99283390D01*
X155809523Y-99283390D02*
X155809523Y-99664342D01*
X155809523Y-99664342D02*
X155761904Y-99759580D01*
X155761904Y-99759580D02*
X155714285Y-99807200D01*
X155714285Y-99807200D02*
X155619047Y-99854819D01*
X155619047Y-99854819D02*
X155428571Y-99854819D01*
X155428571Y-99854819D02*
X155333333Y-99807200D01*
X155333333Y-99807200D02*
X155285714Y-99759580D01*
X155285714Y-99759580D02*
X155238095Y-99664342D01*
X155238095Y-99664342D02*
X155238095Y-99426247D01*
X155238095Y-99426247D02*
X155285714Y-99331009D01*
X155285714Y-99331009D02*
X155333333Y-99283390D01*
X155333333Y-99283390D02*
X155428571Y-99235771D01*
X155428571Y-99235771D02*
X155619047Y-99235771D01*
X155619047Y-99235771D02*
X155714285Y-99283390D01*
X155714285Y-99283390D02*
X155761904Y-99331009D01*
X155761904Y-99331009D02*
X155809523Y-99426247D01*
X104661904Y-122554819D02*
X104661904Y-123364342D01*
X104661904Y-123364342D02*
X104614285Y-123459580D01*
X104614285Y-123459580D02*
X104566666Y-123507200D01*
X104566666Y-123507200D02*
X104471428Y-123554819D01*
X104471428Y-123554819D02*
X104280952Y-123554819D01*
X104280952Y-123554819D02*
X104185714Y-123507200D01*
X104185714Y-123507200D02*
X104138095Y-123459580D01*
X104138095Y-123459580D02*
X104090476Y-123364342D01*
X104090476Y-123364342D02*
X104090476Y-122554819D01*
X103185714Y-122888152D02*
X103185714Y-123554819D01*
X103423809Y-122507200D02*
X103661904Y-123221485D01*
X103661904Y-123221485D02*
X103042857Y-123221485D01*
X99746000Y-130696180D02*
X99746000Y-130458085D01*
X99507905Y-130553323D02*
X99746000Y-130458085D01*
X99746000Y-130458085D02*
X99984095Y-130553323D01*
X99603143Y-130267609D02*
X99746000Y-130458085D01*
X99746000Y-130458085D02*
X99888857Y-130267609D01*
X99745999Y-129605819D02*
X99745999Y-129843914D01*
X99984094Y-129748676D02*
X99745999Y-129843914D01*
X99745999Y-129843914D02*
X99507904Y-129748676D01*
X99888856Y-130034390D02*
X99745999Y-129843914D01*
X99745999Y-129843914D02*
X99603142Y-130034390D01*
X102201485Y-78817125D02*
X101725294Y-78483792D01*
X102201485Y-78245697D02*
X101201485Y-78245697D01*
X101201485Y-78245697D02*
X101201485Y-78626649D01*
X101201485Y-78626649D02*
X101249104Y-78721887D01*
X101249104Y-78721887D02*
X101296723Y-78769506D01*
X101296723Y-78769506D02*
X101391961Y-78817125D01*
X101391961Y-78817125D02*
X101534818Y-78817125D01*
X101534818Y-78817125D02*
X101630056Y-78769506D01*
X101630056Y-78769506D02*
X101677675Y-78721887D01*
X101677675Y-78721887D02*
X101725294Y-78626649D01*
X101725294Y-78626649D02*
X101725294Y-78245697D01*
X101201485Y-79150459D02*
X101201485Y-79817125D01*
X101201485Y-79817125D02*
X102201485Y-79388554D01*
X101201485Y-80102840D02*
X101201485Y-80769506D01*
X101201485Y-80769506D02*
X102201485Y-80340935D01*
X136761904Y-104854819D02*
X136190476Y-104854819D01*
X136476190Y-105854819D02*
X136476190Y-104854819D01*
X135952380Y-104854819D02*
X135333333Y-104854819D01*
X135333333Y-104854819D02*
X135666666Y-105235771D01*
X135666666Y-105235771D02*
X135523809Y-105235771D01*
X135523809Y-105235771D02*
X135428571Y-105283390D01*
X135428571Y-105283390D02*
X135380952Y-105331009D01*
X135380952Y-105331009D02*
X135333333Y-105426247D01*
X135333333Y-105426247D02*
X135333333Y-105664342D01*
X135333333Y-105664342D02*
X135380952Y-105759580D01*
X135380952Y-105759580D02*
X135428571Y-105807200D01*
X135428571Y-105807200D02*
X135523809Y-105854819D01*
X135523809Y-105854819D02*
X135809523Y-105854819D01*
X135809523Y-105854819D02*
X135904761Y-105807200D01*
X135904761Y-105807200D02*
X135952380Y-105759580D01*
X145978628Y-73755809D02*
X146454819Y-73755809D01*
X145454819Y-73422476D02*
X145978628Y-73755809D01*
X145978628Y-73755809D02*
X145454819Y-74089142D01*
X146454819Y-74946285D02*
X146454819Y-74374857D01*
X146454819Y-74660571D02*
X145454819Y-74660571D01*
X145454819Y-74660571D02*
X145597676Y-74565333D01*
X145597676Y-74565333D02*
X145692914Y-74470095D01*
X145692914Y-74470095D02*
X145740533Y-74374857D01*
X155559580Y-91867142D02*
X155607200Y-91819523D01*
X155607200Y-91819523D02*
X155654819Y-91676666D01*
X155654819Y-91676666D02*
X155654819Y-91581428D01*
X155654819Y-91581428D02*
X155607200Y-91438571D01*
X155607200Y-91438571D02*
X155511961Y-91343333D01*
X155511961Y-91343333D02*
X155416723Y-91295714D01*
X155416723Y-91295714D02*
X155226247Y-91248095D01*
X155226247Y-91248095D02*
X155083390Y-91248095D01*
X155083390Y-91248095D02*
X154892914Y-91295714D01*
X154892914Y-91295714D02*
X154797676Y-91343333D01*
X154797676Y-91343333D02*
X154702438Y-91438571D01*
X154702438Y-91438571D02*
X154654819Y-91581428D01*
X154654819Y-91581428D02*
X154654819Y-91676666D01*
X154654819Y-91676666D02*
X154702438Y-91819523D01*
X154702438Y-91819523D02*
X154750057Y-91867142D01*
X154654819Y-92200476D02*
X154654819Y-92867142D01*
X154654819Y-92867142D02*
X155654819Y-92438571D01*
X154654819Y-93724285D02*
X154654819Y-93248095D01*
X154654819Y-93248095D02*
X155131009Y-93200476D01*
X155131009Y-93200476D02*
X155083390Y-93248095D01*
X155083390Y-93248095D02*
X155035771Y-93343333D01*
X155035771Y-93343333D02*
X155035771Y-93581428D01*
X155035771Y-93581428D02*
X155083390Y-93676666D01*
X155083390Y-93676666D02*
X155131009Y-93724285D01*
X155131009Y-93724285D02*
X155226247Y-93771904D01*
X155226247Y-93771904D02*
X155464342Y-93771904D01*
X155464342Y-93771904D02*
X155559580Y-93724285D01*
X155559580Y-93724285D02*
X155607200Y-93676666D01*
X155607200Y-93676666D02*
X155654819Y-93581428D01*
X155654819Y-93581428D02*
X155654819Y-93343333D01*
X155654819Y-93343333D02*
X155607200Y-93248095D01*
X155607200Y-93248095D02*
X155559580Y-93200476D01*
X146359580Y-82833333D02*
X146407200Y-82785714D01*
X146407200Y-82785714D02*
X146454819Y-82642857D01*
X146454819Y-82642857D02*
X146454819Y-82547619D01*
X146454819Y-82547619D02*
X146407200Y-82404762D01*
X146407200Y-82404762D02*
X146311961Y-82309524D01*
X146311961Y-82309524D02*
X146216723Y-82261905D01*
X146216723Y-82261905D02*
X146026247Y-82214286D01*
X146026247Y-82214286D02*
X145883390Y-82214286D01*
X145883390Y-82214286D02*
X145692914Y-82261905D01*
X145692914Y-82261905D02*
X145597676Y-82309524D01*
X145597676Y-82309524D02*
X145502438Y-82404762D01*
X145502438Y-82404762D02*
X145454819Y-82547619D01*
X145454819Y-82547619D02*
X145454819Y-82642857D01*
X145454819Y-82642857D02*
X145502438Y-82785714D01*
X145502438Y-82785714D02*
X145550057Y-82833333D01*
X145454819Y-83166667D02*
X145454819Y-83785714D01*
X145454819Y-83785714D02*
X145835771Y-83452381D01*
X145835771Y-83452381D02*
X145835771Y-83595238D01*
X145835771Y-83595238D02*
X145883390Y-83690476D01*
X145883390Y-83690476D02*
X145931009Y-83738095D01*
X145931009Y-83738095D02*
X146026247Y-83785714D01*
X146026247Y-83785714D02*
X146264342Y-83785714D01*
X146264342Y-83785714D02*
X146359580Y-83738095D01*
X146359580Y-83738095D02*
X146407200Y-83690476D01*
X146407200Y-83690476D02*
X146454819Y-83595238D01*
X146454819Y-83595238D02*
X146454819Y-83309524D01*
X146454819Y-83309524D02*
X146407200Y-83214286D01*
X146407200Y-83214286D02*
X146359580Y-83166667D01*
X153742857Y-90654819D02*
X154076190Y-90178628D01*
X154314285Y-90654819D02*
X154314285Y-89654819D01*
X154314285Y-89654819D02*
X153933333Y-89654819D01*
X153933333Y-89654819D02*
X153838095Y-89702438D01*
X153838095Y-89702438D02*
X153790476Y-89750057D01*
X153790476Y-89750057D02*
X153742857Y-89845295D01*
X153742857Y-89845295D02*
X153742857Y-89988152D01*
X153742857Y-89988152D02*
X153790476Y-90083390D01*
X153790476Y-90083390D02*
X153838095Y-90131009D01*
X153838095Y-90131009D02*
X153933333Y-90178628D01*
X153933333Y-90178628D02*
X154314285Y-90178628D01*
X153409523Y-89654819D02*
X152790476Y-89654819D01*
X152790476Y-89654819D02*
X153123809Y-90035771D01*
X153123809Y-90035771D02*
X152980952Y-90035771D01*
X152980952Y-90035771D02*
X152885714Y-90083390D01*
X152885714Y-90083390D02*
X152838095Y-90131009D01*
X152838095Y-90131009D02*
X152790476Y-90226247D01*
X152790476Y-90226247D02*
X152790476Y-90464342D01*
X152790476Y-90464342D02*
X152838095Y-90559580D01*
X152838095Y-90559580D02*
X152885714Y-90607200D01*
X152885714Y-90607200D02*
X152980952Y-90654819D01*
X152980952Y-90654819D02*
X153266666Y-90654819D01*
X153266666Y-90654819D02*
X153361904Y-90607200D01*
X153361904Y-90607200D02*
X153409523Y-90559580D01*
X151885714Y-89654819D02*
X152361904Y-89654819D01*
X152361904Y-89654819D02*
X152409523Y-90131009D01*
X152409523Y-90131009D02*
X152361904Y-90083390D01*
X152361904Y-90083390D02*
X152266666Y-90035771D01*
X152266666Y-90035771D02*
X152028571Y-90035771D01*
X152028571Y-90035771D02*
X151933333Y-90083390D01*
X151933333Y-90083390D02*
X151885714Y-90131009D01*
X151885714Y-90131009D02*
X151838095Y-90226247D01*
X151838095Y-90226247D02*
X151838095Y-90464342D01*
X151838095Y-90464342D02*
X151885714Y-90559580D01*
X151885714Y-90559580D02*
X151933333Y-90607200D01*
X151933333Y-90607200D02*
X152028571Y-90654819D01*
X152028571Y-90654819D02*
X152266666Y-90654819D01*
X152266666Y-90654819D02*
X152361904Y-90607200D01*
X152361904Y-90607200D02*
X152409523Y-90559580D01*
X156499580Y-105257142D02*
X156547200Y-105209523D01*
X156547200Y-105209523D02*
X156594819Y-105066666D01*
X156594819Y-105066666D02*
X156594819Y-104971428D01*
X156594819Y-104971428D02*
X156547200Y-104828571D01*
X156547200Y-104828571D02*
X156451961Y-104733333D01*
X156451961Y-104733333D02*
X156356723Y-104685714D01*
X156356723Y-104685714D02*
X156166247Y-104638095D01*
X156166247Y-104638095D02*
X156023390Y-104638095D01*
X156023390Y-104638095D02*
X155832914Y-104685714D01*
X155832914Y-104685714D02*
X155737676Y-104733333D01*
X155737676Y-104733333D02*
X155642438Y-104828571D01*
X155642438Y-104828571D02*
X155594819Y-104971428D01*
X155594819Y-104971428D02*
X155594819Y-105066666D01*
X155594819Y-105066666D02*
X155642438Y-105209523D01*
X155642438Y-105209523D02*
X155690057Y-105257142D01*
X156594819Y-105733333D02*
X156594819Y-105923809D01*
X156594819Y-105923809D02*
X156547200Y-106019047D01*
X156547200Y-106019047D02*
X156499580Y-106066666D01*
X156499580Y-106066666D02*
X156356723Y-106161904D01*
X156356723Y-106161904D02*
X156166247Y-106209523D01*
X156166247Y-106209523D02*
X155785295Y-106209523D01*
X155785295Y-106209523D02*
X155690057Y-106161904D01*
X155690057Y-106161904D02*
X155642438Y-106114285D01*
X155642438Y-106114285D02*
X155594819Y-106019047D01*
X155594819Y-106019047D02*
X155594819Y-105828571D01*
X155594819Y-105828571D02*
X155642438Y-105733333D01*
X155642438Y-105733333D02*
X155690057Y-105685714D01*
X155690057Y-105685714D02*
X155785295Y-105638095D01*
X155785295Y-105638095D02*
X156023390Y-105638095D01*
X156023390Y-105638095D02*
X156118628Y-105685714D01*
X156118628Y-105685714D02*
X156166247Y-105733333D01*
X156166247Y-105733333D02*
X156213866Y-105828571D01*
X156213866Y-105828571D02*
X156213866Y-106019047D01*
X156213866Y-106019047D02*
X156166247Y-106114285D01*
X156166247Y-106114285D02*
X156118628Y-106161904D01*
X156118628Y-106161904D02*
X156023390Y-106209523D01*
X155594819Y-106542857D02*
X155594819Y-107161904D01*
X155594819Y-107161904D02*
X155975771Y-106828571D01*
X155975771Y-106828571D02*
X155975771Y-106971428D01*
X155975771Y-106971428D02*
X156023390Y-107066666D01*
X156023390Y-107066666D02*
X156071009Y-107114285D01*
X156071009Y-107114285D02*
X156166247Y-107161904D01*
X156166247Y-107161904D02*
X156404342Y-107161904D01*
X156404342Y-107161904D02*
X156499580Y-107114285D01*
X156499580Y-107114285D02*
X156547200Y-107066666D01*
X156547200Y-107066666D02*
X156594819Y-106971428D01*
X156594819Y-106971428D02*
X156594819Y-106685714D01*
X156594819Y-106685714D02*
X156547200Y-106590476D01*
X156547200Y-106590476D02*
X156499580Y-106542857D01*
X119738094Y-70854819D02*
X119738094Y-71664342D01*
X119738094Y-71664342D02*
X119690475Y-71759580D01*
X119690475Y-71759580D02*
X119642856Y-71807200D01*
X119642856Y-71807200D02*
X119547618Y-71854819D01*
X119547618Y-71854819D02*
X119357142Y-71854819D01*
X119357142Y-71854819D02*
X119261904Y-71807200D01*
X119261904Y-71807200D02*
X119214285Y-71759580D01*
X119214285Y-71759580D02*
X119166666Y-71664342D01*
X119166666Y-71664342D02*
X119166666Y-70854819D01*
X118738094Y-70950057D02*
X118690475Y-70902438D01*
X118690475Y-70902438D02*
X118595237Y-70854819D01*
X118595237Y-70854819D02*
X118357142Y-70854819D01*
X118357142Y-70854819D02*
X118261904Y-70902438D01*
X118261904Y-70902438D02*
X118214285Y-70950057D01*
X118214285Y-70950057D02*
X118166666Y-71045295D01*
X118166666Y-71045295D02*
X118166666Y-71140533D01*
X118166666Y-71140533D02*
X118214285Y-71283390D01*
X118214285Y-71283390D02*
X118785713Y-71854819D01*
X118785713Y-71854819D02*
X118166666Y-71854819D01*
X117690475Y-71854819D02*
X117499999Y-71854819D01*
X117499999Y-71854819D02*
X117404761Y-71807200D01*
X117404761Y-71807200D02*
X117357142Y-71759580D01*
X117357142Y-71759580D02*
X117261904Y-71616723D01*
X117261904Y-71616723D02*
X117214285Y-71426247D01*
X117214285Y-71426247D02*
X117214285Y-71045295D01*
X117214285Y-71045295D02*
X117261904Y-70950057D01*
X117261904Y-70950057D02*
X117309523Y-70902438D01*
X117309523Y-70902438D02*
X117404761Y-70854819D01*
X117404761Y-70854819D02*
X117595237Y-70854819D01*
X117595237Y-70854819D02*
X117690475Y-70902438D01*
X117690475Y-70902438D02*
X117738094Y-70950057D01*
X117738094Y-70950057D02*
X117785713Y-71045295D01*
X117785713Y-71045295D02*
X117785713Y-71283390D01*
X117785713Y-71283390D02*
X117738094Y-71378628D01*
X117738094Y-71378628D02*
X117690475Y-71426247D01*
X117690475Y-71426247D02*
X117595237Y-71473866D01*
X117595237Y-71473866D02*
X117404761Y-71473866D01*
X117404761Y-71473866D02*
X117309523Y-71426247D01*
X117309523Y-71426247D02*
X117261904Y-71378628D01*
X117261904Y-71378628D02*
X117214285Y-71283390D01*
X154861904Y-103354819D02*
X154290476Y-103354819D01*
X154576190Y-104354819D02*
X154576190Y-103354819D01*
X153528571Y-103688152D02*
X153528571Y-104354819D01*
X153766666Y-103307200D02*
X154004761Y-104021485D01*
X154004761Y-104021485D02*
X153385714Y-104021485D01*
X156499580Y-111794642D02*
X156547200Y-111747023D01*
X156547200Y-111747023D02*
X156594819Y-111604166D01*
X156594819Y-111604166D02*
X156594819Y-111508928D01*
X156594819Y-111508928D02*
X156547200Y-111366071D01*
X156547200Y-111366071D02*
X156451961Y-111270833D01*
X156451961Y-111270833D02*
X156356723Y-111223214D01*
X156356723Y-111223214D02*
X156166247Y-111175595D01*
X156166247Y-111175595D02*
X156023390Y-111175595D01*
X156023390Y-111175595D02*
X155832914Y-111223214D01*
X155832914Y-111223214D02*
X155737676Y-111270833D01*
X155737676Y-111270833D02*
X155642438Y-111366071D01*
X155642438Y-111366071D02*
X155594819Y-111508928D01*
X155594819Y-111508928D02*
X155594819Y-111604166D01*
X155594819Y-111604166D02*
X155642438Y-111747023D01*
X155642438Y-111747023D02*
X155690057Y-111794642D01*
X156594819Y-112270833D02*
X156594819Y-112461309D01*
X156594819Y-112461309D02*
X156547200Y-112556547D01*
X156547200Y-112556547D02*
X156499580Y-112604166D01*
X156499580Y-112604166D02*
X156356723Y-112699404D01*
X156356723Y-112699404D02*
X156166247Y-112747023D01*
X156166247Y-112747023D02*
X155785295Y-112747023D01*
X155785295Y-112747023D02*
X155690057Y-112699404D01*
X155690057Y-112699404D02*
X155642438Y-112651785D01*
X155642438Y-112651785D02*
X155594819Y-112556547D01*
X155594819Y-112556547D02*
X155594819Y-112366071D01*
X155594819Y-112366071D02*
X155642438Y-112270833D01*
X155642438Y-112270833D02*
X155690057Y-112223214D01*
X155690057Y-112223214D02*
X155785295Y-112175595D01*
X155785295Y-112175595D02*
X156023390Y-112175595D01*
X156023390Y-112175595D02*
X156118628Y-112223214D01*
X156118628Y-112223214D02*
X156166247Y-112270833D01*
X156166247Y-112270833D02*
X156213866Y-112366071D01*
X156213866Y-112366071D02*
X156213866Y-112556547D01*
X156213866Y-112556547D02*
X156166247Y-112651785D01*
X156166247Y-112651785D02*
X156118628Y-112699404D01*
X156118628Y-112699404D02*
X156023390Y-112747023D01*
X155594819Y-113080357D02*
X155594819Y-113747023D01*
X155594819Y-113747023D02*
X156594819Y-113318452D01*
X142761904Y-76954819D02*
X142761904Y-77764342D01*
X142761904Y-77764342D02*
X142714285Y-77859580D01*
X142714285Y-77859580D02*
X142666666Y-77907200D01*
X142666666Y-77907200D02*
X142571428Y-77954819D01*
X142571428Y-77954819D02*
X142380952Y-77954819D01*
X142380952Y-77954819D02*
X142285714Y-77907200D01*
X142285714Y-77907200D02*
X142238095Y-77859580D01*
X142238095Y-77859580D02*
X142190476Y-77764342D01*
X142190476Y-77764342D02*
X142190476Y-76954819D01*
X141190476Y-77954819D02*
X141761904Y-77954819D01*
X141476190Y-77954819D02*
X141476190Y-76954819D01*
X141476190Y-76954819D02*
X141571428Y-77097676D01*
X141571428Y-77097676D02*
X141666666Y-77192914D01*
X141666666Y-77192914D02*
X141761904Y-77240533D01*
X138954819Y-77500000D02*
X139192914Y-77500000D01*
X139097676Y-77261905D02*
X139192914Y-77500000D01*
X139192914Y-77500000D02*
X139097676Y-77738095D01*
X139383390Y-77357143D02*
X139192914Y-77500000D01*
X139192914Y-77500000D02*
X139383390Y-77642857D01*
X110242857Y-92254819D02*
X110576190Y-91778628D01*
X110814285Y-92254819D02*
X110814285Y-91254819D01*
X110814285Y-91254819D02*
X110433333Y-91254819D01*
X110433333Y-91254819D02*
X110338095Y-91302438D01*
X110338095Y-91302438D02*
X110290476Y-91350057D01*
X110290476Y-91350057D02*
X110242857Y-91445295D01*
X110242857Y-91445295D02*
X110242857Y-91588152D01*
X110242857Y-91588152D02*
X110290476Y-91683390D01*
X110290476Y-91683390D02*
X110338095Y-91731009D01*
X110338095Y-91731009D02*
X110433333Y-91778628D01*
X110433333Y-91778628D02*
X110814285Y-91778628D01*
X109909523Y-91254819D02*
X109242857Y-91254819D01*
X109242857Y-91254819D02*
X109671428Y-92254819D01*
X108671428Y-91254819D02*
X108576190Y-91254819D01*
X108576190Y-91254819D02*
X108480952Y-91302438D01*
X108480952Y-91302438D02*
X108433333Y-91350057D01*
X108433333Y-91350057D02*
X108385714Y-91445295D01*
X108385714Y-91445295D02*
X108338095Y-91635771D01*
X108338095Y-91635771D02*
X108338095Y-91873866D01*
X108338095Y-91873866D02*
X108385714Y-92064342D01*
X108385714Y-92064342D02*
X108433333Y-92159580D01*
X108433333Y-92159580D02*
X108480952Y-92207200D01*
X108480952Y-92207200D02*
X108576190Y-92254819D01*
X108576190Y-92254819D02*
X108671428Y-92254819D01*
X108671428Y-92254819D02*
X108766666Y-92207200D01*
X108766666Y-92207200D02*
X108814285Y-92159580D01*
X108814285Y-92159580D02*
X108861904Y-92064342D01*
X108861904Y-92064342D02*
X108909523Y-91873866D01*
X108909523Y-91873866D02*
X108909523Y-91635771D01*
X108909523Y-91635771D02*
X108861904Y-91445295D01*
X108861904Y-91445295D02*
X108814285Y-91350057D01*
X108814285Y-91350057D02*
X108766666Y-91302438D01*
X108766666Y-91302438D02*
X108671428Y-91254819D01*
X170842857Y-103059580D02*
X170890476Y-103107200D01*
X170890476Y-103107200D02*
X171033333Y-103154819D01*
X171033333Y-103154819D02*
X171128571Y-103154819D01*
X171128571Y-103154819D02*
X171271428Y-103107200D01*
X171271428Y-103107200D02*
X171366666Y-103011961D01*
X171366666Y-103011961D02*
X171414285Y-102916723D01*
X171414285Y-102916723D02*
X171461904Y-102726247D01*
X171461904Y-102726247D02*
X171461904Y-102583390D01*
X171461904Y-102583390D02*
X171414285Y-102392914D01*
X171414285Y-102392914D02*
X171366666Y-102297676D01*
X171366666Y-102297676D02*
X171271428Y-102202438D01*
X171271428Y-102202438D02*
X171128571Y-102154819D01*
X171128571Y-102154819D02*
X171033333Y-102154819D01*
X171033333Y-102154819D02*
X170890476Y-102202438D01*
X170890476Y-102202438D02*
X170842857Y-102250057D01*
X170271428Y-102583390D02*
X170366666Y-102535771D01*
X170366666Y-102535771D02*
X170414285Y-102488152D01*
X170414285Y-102488152D02*
X170461904Y-102392914D01*
X170461904Y-102392914D02*
X170461904Y-102345295D01*
X170461904Y-102345295D02*
X170414285Y-102250057D01*
X170414285Y-102250057D02*
X170366666Y-102202438D01*
X170366666Y-102202438D02*
X170271428Y-102154819D01*
X170271428Y-102154819D02*
X170080952Y-102154819D01*
X170080952Y-102154819D02*
X169985714Y-102202438D01*
X169985714Y-102202438D02*
X169938095Y-102250057D01*
X169938095Y-102250057D02*
X169890476Y-102345295D01*
X169890476Y-102345295D02*
X169890476Y-102392914D01*
X169890476Y-102392914D02*
X169938095Y-102488152D01*
X169938095Y-102488152D02*
X169985714Y-102535771D01*
X169985714Y-102535771D02*
X170080952Y-102583390D01*
X170080952Y-102583390D02*
X170271428Y-102583390D01*
X170271428Y-102583390D02*
X170366666Y-102631009D01*
X170366666Y-102631009D02*
X170414285Y-102678628D01*
X170414285Y-102678628D02*
X170461904Y-102773866D01*
X170461904Y-102773866D02*
X170461904Y-102964342D01*
X170461904Y-102964342D02*
X170414285Y-103059580D01*
X170414285Y-103059580D02*
X170366666Y-103107200D01*
X170366666Y-103107200D02*
X170271428Y-103154819D01*
X170271428Y-103154819D02*
X170080952Y-103154819D01*
X170080952Y-103154819D02*
X169985714Y-103107200D01*
X169985714Y-103107200D02*
X169938095Y-103059580D01*
X169938095Y-103059580D02*
X169890476Y-102964342D01*
X169890476Y-102964342D02*
X169890476Y-102773866D01*
X169890476Y-102773866D02*
X169938095Y-102678628D01*
X169938095Y-102678628D02*
X169985714Y-102631009D01*
X169985714Y-102631009D02*
X170080952Y-102583390D01*
X168938095Y-103154819D02*
X169509523Y-103154819D01*
X169223809Y-103154819D02*
X169223809Y-102154819D01*
X169223809Y-102154819D02*
X169319047Y-102297676D01*
X169319047Y-102297676D02*
X169414285Y-102392914D01*
X169414285Y-102392914D02*
X169509523Y-102440533D01*
X148338094Y-102954819D02*
X148338094Y-103764342D01*
X148338094Y-103764342D02*
X148290475Y-103859580D01*
X148290475Y-103859580D02*
X148242856Y-103907200D01*
X148242856Y-103907200D02*
X148147618Y-103954819D01*
X148147618Y-103954819D02*
X147957142Y-103954819D01*
X147957142Y-103954819D02*
X147861904Y-103907200D01*
X147861904Y-103907200D02*
X147814285Y-103859580D01*
X147814285Y-103859580D02*
X147766666Y-103764342D01*
X147766666Y-103764342D02*
X147766666Y-102954819D01*
X146766666Y-103954819D02*
X147338094Y-103954819D01*
X147052380Y-103954819D02*
X147052380Y-102954819D01*
X147052380Y-102954819D02*
X147147618Y-103097676D01*
X147147618Y-103097676D02*
X147242856Y-103192914D01*
X147242856Y-103192914D02*
X147338094Y-103240533D01*
X146290475Y-103954819D02*
X146099999Y-103954819D01*
X146099999Y-103954819D02*
X146004761Y-103907200D01*
X146004761Y-103907200D02*
X145957142Y-103859580D01*
X145957142Y-103859580D02*
X145861904Y-103716723D01*
X145861904Y-103716723D02*
X145814285Y-103526247D01*
X145814285Y-103526247D02*
X145814285Y-103145295D01*
X145814285Y-103145295D02*
X145861904Y-103050057D01*
X145861904Y-103050057D02*
X145909523Y-103002438D01*
X145909523Y-103002438D02*
X146004761Y-102954819D01*
X146004761Y-102954819D02*
X146195237Y-102954819D01*
X146195237Y-102954819D02*
X146290475Y-103002438D01*
X146290475Y-103002438D02*
X146338094Y-103050057D01*
X146338094Y-103050057D02*
X146385713Y-103145295D01*
X146385713Y-103145295D02*
X146385713Y-103383390D01*
X146385713Y-103383390D02*
X146338094Y-103478628D01*
X146338094Y-103478628D02*
X146290475Y-103526247D01*
X146290475Y-103526247D02*
X146195237Y-103573866D01*
X146195237Y-103573866D02*
X146004761Y-103573866D01*
X146004761Y-103573866D02*
X145909523Y-103526247D01*
X145909523Y-103526247D02*
X145861904Y-103478628D01*
X145861904Y-103478628D02*
X145814285Y-103383390D01*
X141944000Y-108643180D02*
X141944000Y-108405085D01*
X141705905Y-108500323D02*
X141944000Y-108405085D01*
X141944000Y-108405085D02*
X142182095Y-108500323D01*
X141801143Y-108214609D02*
X141944000Y-108405085D01*
X141944000Y-108405085D02*
X142086857Y-108214609D01*
X129307857Y-118889580D02*
X129355476Y-118937200D01*
X129355476Y-118937200D02*
X129498333Y-118984819D01*
X129498333Y-118984819D02*
X129593571Y-118984819D01*
X129593571Y-118984819D02*
X129736428Y-118937200D01*
X129736428Y-118937200D02*
X129831666Y-118841961D01*
X129831666Y-118841961D02*
X129879285Y-118746723D01*
X129879285Y-118746723D02*
X129926904Y-118556247D01*
X129926904Y-118556247D02*
X129926904Y-118413390D01*
X129926904Y-118413390D02*
X129879285Y-118222914D01*
X129879285Y-118222914D02*
X129831666Y-118127676D01*
X129831666Y-118127676D02*
X129736428Y-118032438D01*
X129736428Y-118032438D02*
X129593571Y-117984819D01*
X129593571Y-117984819D02*
X129498333Y-117984819D01*
X129498333Y-117984819D02*
X129355476Y-118032438D01*
X129355476Y-118032438D02*
X129307857Y-118080057D01*
X128831666Y-118984819D02*
X128641190Y-118984819D01*
X128641190Y-118984819D02*
X128545952Y-118937200D01*
X128545952Y-118937200D02*
X128498333Y-118889580D01*
X128498333Y-118889580D02*
X128403095Y-118746723D01*
X128403095Y-118746723D02*
X128355476Y-118556247D01*
X128355476Y-118556247D02*
X128355476Y-118175295D01*
X128355476Y-118175295D02*
X128403095Y-118080057D01*
X128403095Y-118080057D02*
X128450714Y-118032438D01*
X128450714Y-118032438D02*
X128545952Y-117984819D01*
X128545952Y-117984819D02*
X128736428Y-117984819D01*
X128736428Y-117984819D02*
X128831666Y-118032438D01*
X128831666Y-118032438D02*
X128879285Y-118080057D01*
X128879285Y-118080057D02*
X128926904Y-118175295D01*
X128926904Y-118175295D02*
X128926904Y-118413390D01*
X128926904Y-118413390D02*
X128879285Y-118508628D01*
X128879285Y-118508628D02*
X128831666Y-118556247D01*
X128831666Y-118556247D02*
X128736428Y-118603866D01*
X128736428Y-118603866D02*
X128545952Y-118603866D01*
X128545952Y-118603866D02*
X128450714Y-118556247D01*
X128450714Y-118556247D02*
X128403095Y-118508628D01*
X128403095Y-118508628D02*
X128355476Y-118413390D01*
X127403095Y-118984819D02*
X127974523Y-118984819D01*
X127688809Y-118984819D02*
X127688809Y-117984819D01*
X127688809Y-117984819D02*
X127784047Y-118127676D01*
X127784047Y-118127676D02*
X127879285Y-118222914D01*
X127879285Y-118222914D02*
X127974523Y-118270533D01*
X136022857Y-116559580D02*
X136070476Y-116607200D01*
X136070476Y-116607200D02*
X136213333Y-116654819D01*
X136213333Y-116654819D02*
X136308571Y-116654819D01*
X136308571Y-116654819D02*
X136451428Y-116607200D01*
X136451428Y-116607200D02*
X136546666Y-116511961D01*
X136546666Y-116511961D02*
X136594285Y-116416723D01*
X136594285Y-116416723D02*
X136641904Y-116226247D01*
X136641904Y-116226247D02*
X136641904Y-116083390D01*
X136641904Y-116083390D02*
X136594285Y-115892914D01*
X136594285Y-115892914D02*
X136546666Y-115797676D01*
X136546666Y-115797676D02*
X136451428Y-115702438D01*
X136451428Y-115702438D02*
X136308571Y-115654819D01*
X136308571Y-115654819D02*
X136213333Y-115654819D01*
X136213333Y-115654819D02*
X136070476Y-115702438D01*
X136070476Y-115702438D02*
X136022857Y-115750057D01*
X135546666Y-116654819D02*
X135356190Y-116654819D01*
X135356190Y-116654819D02*
X135260952Y-116607200D01*
X135260952Y-116607200D02*
X135213333Y-116559580D01*
X135213333Y-116559580D02*
X135118095Y-116416723D01*
X135118095Y-116416723D02*
X135070476Y-116226247D01*
X135070476Y-116226247D02*
X135070476Y-115845295D01*
X135070476Y-115845295D02*
X135118095Y-115750057D01*
X135118095Y-115750057D02*
X135165714Y-115702438D01*
X135165714Y-115702438D02*
X135260952Y-115654819D01*
X135260952Y-115654819D02*
X135451428Y-115654819D01*
X135451428Y-115654819D02*
X135546666Y-115702438D01*
X135546666Y-115702438D02*
X135594285Y-115750057D01*
X135594285Y-115750057D02*
X135641904Y-115845295D01*
X135641904Y-115845295D02*
X135641904Y-116083390D01*
X135641904Y-116083390D02*
X135594285Y-116178628D01*
X135594285Y-116178628D02*
X135546666Y-116226247D01*
X135546666Y-116226247D02*
X135451428Y-116273866D01*
X135451428Y-116273866D02*
X135260952Y-116273866D01*
X135260952Y-116273866D02*
X135165714Y-116226247D01*
X135165714Y-116226247D02*
X135118095Y-116178628D01*
X135118095Y-116178628D02*
X135070476Y-116083390D01*
X134165714Y-115654819D02*
X134641904Y-115654819D01*
X134641904Y-115654819D02*
X134689523Y-116131009D01*
X134689523Y-116131009D02*
X134641904Y-116083390D01*
X134641904Y-116083390D02*
X134546666Y-116035771D01*
X134546666Y-116035771D02*
X134308571Y-116035771D01*
X134308571Y-116035771D02*
X134213333Y-116083390D01*
X134213333Y-116083390D02*
X134165714Y-116131009D01*
X134165714Y-116131009D02*
X134118095Y-116226247D01*
X134118095Y-116226247D02*
X134118095Y-116464342D01*
X134118095Y-116464342D02*
X134165714Y-116559580D01*
X134165714Y-116559580D02*
X134213333Y-116607200D01*
X134213333Y-116607200D02*
X134308571Y-116654819D01*
X134308571Y-116654819D02*
X134546666Y-116654819D01*
X134546666Y-116654819D02*
X134641904Y-116607200D01*
X134641904Y-116607200D02*
X134689523Y-116559580D01*
X153742857Y-95204819D02*
X154076190Y-94728628D01*
X154314285Y-95204819D02*
X154314285Y-94204819D01*
X154314285Y-94204819D02*
X153933333Y-94204819D01*
X153933333Y-94204819D02*
X153838095Y-94252438D01*
X153838095Y-94252438D02*
X153790476Y-94300057D01*
X153790476Y-94300057D02*
X153742857Y-94395295D01*
X153742857Y-94395295D02*
X153742857Y-94538152D01*
X153742857Y-94538152D02*
X153790476Y-94633390D01*
X153790476Y-94633390D02*
X153838095Y-94681009D01*
X153838095Y-94681009D02*
X153933333Y-94728628D01*
X153933333Y-94728628D02*
X154314285Y-94728628D01*
X152885714Y-94204819D02*
X153076190Y-94204819D01*
X153076190Y-94204819D02*
X153171428Y-94252438D01*
X153171428Y-94252438D02*
X153219047Y-94300057D01*
X153219047Y-94300057D02*
X153314285Y-94442914D01*
X153314285Y-94442914D02*
X153361904Y-94633390D01*
X153361904Y-94633390D02*
X153361904Y-95014342D01*
X153361904Y-95014342D02*
X153314285Y-95109580D01*
X153314285Y-95109580D02*
X153266666Y-95157200D01*
X153266666Y-95157200D02*
X153171428Y-95204819D01*
X153171428Y-95204819D02*
X152980952Y-95204819D01*
X152980952Y-95204819D02*
X152885714Y-95157200D01*
X152885714Y-95157200D02*
X152838095Y-95109580D01*
X152838095Y-95109580D02*
X152790476Y-95014342D01*
X152790476Y-95014342D02*
X152790476Y-94776247D01*
X152790476Y-94776247D02*
X152838095Y-94681009D01*
X152838095Y-94681009D02*
X152885714Y-94633390D01*
X152885714Y-94633390D02*
X152980952Y-94585771D01*
X152980952Y-94585771D02*
X153171428Y-94585771D01*
X153171428Y-94585771D02*
X153266666Y-94633390D01*
X153266666Y-94633390D02*
X153314285Y-94681009D01*
X153314285Y-94681009D02*
X153361904Y-94776247D01*
X152457142Y-94204819D02*
X151838095Y-94204819D01*
X151838095Y-94204819D02*
X152171428Y-94585771D01*
X152171428Y-94585771D02*
X152028571Y-94585771D01*
X152028571Y-94585771D02*
X151933333Y-94633390D01*
X151933333Y-94633390D02*
X151885714Y-94681009D01*
X151885714Y-94681009D02*
X151838095Y-94776247D01*
X151838095Y-94776247D02*
X151838095Y-95014342D01*
X151838095Y-95014342D02*
X151885714Y-95109580D01*
X151885714Y-95109580D02*
X151933333Y-95157200D01*
X151933333Y-95157200D02*
X152028571Y-95204819D01*
X152028571Y-95204819D02*
X152314285Y-95204819D01*
X152314285Y-95204819D02*
X152409523Y-95157200D01*
X152409523Y-95157200D02*
X152457142Y-95109580D01*
X157142857Y-103859580D02*
X157190476Y-103907200D01*
X157190476Y-103907200D02*
X157333333Y-103954819D01*
X157333333Y-103954819D02*
X157428571Y-103954819D01*
X157428571Y-103954819D02*
X157571428Y-103907200D01*
X157571428Y-103907200D02*
X157666666Y-103811961D01*
X157666666Y-103811961D02*
X157714285Y-103716723D01*
X157714285Y-103716723D02*
X157761904Y-103526247D01*
X157761904Y-103526247D02*
X157761904Y-103383390D01*
X157761904Y-103383390D02*
X157714285Y-103192914D01*
X157714285Y-103192914D02*
X157666666Y-103097676D01*
X157666666Y-103097676D02*
X157571428Y-103002438D01*
X157571428Y-103002438D02*
X157428571Y-102954819D01*
X157428571Y-102954819D02*
X157333333Y-102954819D01*
X157333333Y-102954819D02*
X157190476Y-103002438D01*
X157190476Y-103002438D02*
X157142857Y-103050057D01*
X156809523Y-102954819D02*
X156142857Y-102954819D01*
X156142857Y-102954819D02*
X156571428Y-103954819D01*
X155619047Y-103383390D02*
X155714285Y-103335771D01*
X155714285Y-103335771D02*
X155761904Y-103288152D01*
X155761904Y-103288152D02*
X155809523Y-103192914D01*
X155809523Y-103192914D02*
X155809523Y-103145295D01*
X155809523Y-103145295D02*
X155761904Y-103050057D01*
X155761904Y-103050057D02*
X155714285Y-103002438D01*
X155714285Y-103002438D02*
X155619047Y-102954819D01*
X155619047Y-102954819D02*
X155428571Y-102954819D01*
X155428571Y-102954819D02*
X155333333Y-103002438D01*
X155333333Y-103002438D02*
X155285714Y-103050057D01*
X155285714Y-103050057D02*
X155238095Y-103145295D01*
X155238095Y-103145295D02*
X155238095Y-103192914D01*
X155238095Y-103192914D02*
X155285714Y-103288152D01*
X155285714Y-103288152D02*
X155333333Y-103335771D01*
X155333333Y-103335771D02*
X155428571Y-103383390D01*
X155428571Y-103383390D02*
X155619047Y-103383390D01*
X155619047Y-103383390D02*
X155714285Y-103431009D01*
X155714285Y-103431009D02*
X155761904Y-103478628D01*
X155761904Y-103478628D02*
X155809523Y-103573866D01*
X155809523Y-103573866D02*
X155809523Y-103764342D01*
X155809523Y-103764342D02*
X155761904Y-103859580D01*
X155761904Y-103859580D02*
X155714285Y-103907200D01*
X155714285Y-103907200D02*
X155619047Y-103954819D01*
X155619047Y-103954819D02*
X155428571Y-103954819D01*
X155428571Y-103954819D02*
X155333333Y-103907200D01*
X155333333Y-103907200D02*
X155285714Y-103859580D01*
X155285714Y-103859580D02*
X155238095Y-103764342D01*
X155238095Y-103764342D02*
X155238095Y-103573866D01*
X155238095Y-103573866D02*
X155285714Y-103478628D01*
X155285714Y-103478628D02*
X155333333Y-103431009D01*
X155333333Y-103431009D02*
X155428571Y-103383390D01*
X142538094Y-67454819D02*
X142538094Y-68264342D01*
X142538094Y-68264342D02*
X142490475Y-68359580D01*
X142490475Y-68359580D02*
X142442856Y-68407200D01*
X142442856Y-68407200D02*
X142347618Y-68454819D01*
X142347618Y-68454819D02*
X142157142Y-68454819D01*
X142157142Y-68454819D02*
X142061904Y-68407200D01*
X142061904Y-68407200D02*
X142014285Y-68359580D01*
X142014285Y-68359580D02*
X141966666Y-68264342D01*
X141966666Y-68264342D02*
X141966666Y-67454819D01*
X141538094Y-67550057D02*
X141490475Y-67502438D01*
X141490475Y-67502438D02*
X141395237Y-67454819D01*
X141395237Y-67454819D02*
X141157142Y-67454819D01*
X141157142Y-67454819D02*
X141061904Y-67502438D01*
X141061904Y-67502438D02*
X141014285Y-67550057D01*
X141014285Y-67550057D02*
X140966666Y-67645295D01*
X140966666Y-67645295D02*
X140966666Y-67740533D01*
X140966666Y-67740533D02*
X141014285Y-67883390D01*
X141014285Y-67883390D02*
X141585713Y-68454819D01*
X141585713Y-68454819D02*
X140966666Y-68454819D01*
X140585713Y-67550057D02*
X140538094Y-67502438D01*
X140538094Y-67502438D02*
X140442856Y-67454819D01*
X140442856Y-67454819D02*
X140204761Y-67454819D01*
X140204761Y-67454819D02*
X140109523Y-67502438D01*
X140109523Y-67502438D02*
X140061904Y-67550057D01*
X140061904Y-67550057D02*
X140014285Y-67645295D01*
X140014285Y-67645295D02*
X140014285Y-67740533D01*
X140014285Y-67740533D02*
X140061904Y-67883390D01*
X140061904Y-67883390D02*
X140633332Y-68454819D01*
X140633332Y-68454819D02*
X140014285Y-68454819D01*
X128960357Y-87959580D02*
X129007976Y-88007200D01*
X129007976Y-88007200D02*
X129150833Y-88054819D01*
X129150833Y-88054819D02*
X129246071Y-88054819D01*
X129246071Y-88054819D02*
X129388928Y-88007200D01*
X129388928Y-88007200D02*
X129484166Y-87911961D01*
X129484166Y-87911961D02*
X129531785Y-87816723D01*
X129531785Y-87816723D02*
X129579404Y-87626247D01*
X129579404Y-87626247D02*
X129579404Y-87483390D01*
X129579404Y-87483390D02*
X129531785Y-87292914D01*
X129531785Y-87292914D02*
X129484166Y-87197676D01*
X129484166Y-87197676D02*
X129388928Y-87102438D01*
X129388928Y-87102438D02*
X129246071Y-87054819D01*
X129246071Y-87054819D02*
X129150833Y-87054819D01*
X129150833Y-87054819D02*
X129007976Y-87102438D01*
X129007976Y-87102438D02*
X128960357Y-87150057D01*
X128484166Y-88054819D02*
X128293690Y-88054819D01*
X128293690Y-88054819D02*
X128198452Y-88007200D01*
X128198452Y-88007200D02*
X128150833Y-87959580D01*
X128150833Y-87959580D02*
X128055595Y-87816723D01*
X128055595Y-87816723D02*
X128007976Y-87626247D01*
X128007976Y-87626247D02*
X128007976Y-87245295D01*
X128007976Y-87245295D02*
X128055595Y-87150057D01*
X128055595Y-87150057D02*
X128103214Y-87102438D01*
X128103214Y-87102438D02*
X128198452Y-87054819D01*
X128198452Y-87054819D02*
X128388928Y-87054819D01*
X128388928Y-87054819D02*
X128484166Y-87102438D01*
X128484166Y-87102438D02*
X128531785Y-87150057D01*
X128531785Y-87150057D02*
X128579404Y-87245295D01*
X128579404Y-87245295D02*
X128579404Y-87483390D01*
X128579404Y-87483390D02*
X128531785Y-87578628D01*
X128531785Y-87578628D02*
X128484166Y-87626247D01*
X128484166Y-87626247D02*
X128388928Y-87673866D01*
X128388928Y-87673866D02*
X128198452Y-87673866D01*
X128198452Y-87673866D02*
X128103214Y-87626247D01*
X128103214Y-87626247D02*
X128055595Y-87578628D01*
X128055595Y-87578628D02*
X128007976Y-87483390D01*
X127531785Y-88054819D02*
X127341309Y-88054819D01*
X127341309Y-88054819D02*
X127246071Y-88007200D01*
X127246071Y-88007200D02*
X127198452Y-87959580D01*
X127198452Y-87959580D02*
X127103214Y-87816723D01*
X127103214Y-87816723D02*
X127055595Y-87626247D01*
X127055595Y-87626247D02*
X127055595Y-87245295D01*
X127055595Y-87245295D02*
X127103214Y-87150057D01*
X127103214Y-87150057D02*
X127150833Y-87102438D01*
X127150833Y-87102438D02*
X127246071Y-87054819D01*
X127246071Y-87054819D02*
X127436547Y-87054819D01*
X127436547Y-87054819D02*
X127531785Y-87102438D01*
X127531785Y-87102438D02*
X127579404Y-87150057D01*
X127579404Y-87150057D02*
X127627023Y-87245295D01*
X127627023Y-87245295D02*
X127627023Y-87483390D01*
X127627023Y-87483390D02*
X127579404Y-87578628D01*
X127579404Y-87578628D02*
X127531785Y-87626247D01*
X127531785Y-87626247D02*
X127436547Y-87673866D01*
X127436547Y-87673866D02*
X127246071Y-87673866D01*
X127246071Y-87673866D02*
X127150833Y-87626247D01*
X127150833Y-87626247D02*
X127103214Y-87578628D01*
X127103214Y-87578628D02*
X127055595Y-87483390D01*
X153740357Y-97384819D02*
X154073690Y-96908628D01*
X154311785Y-97384819D02*
X154311785Y-96384819D01*
X154311785Y-96384819D02*
X153930833Y-96384819D01*
X153930833Y-96384819D02*
X153835595Y-96432438D01*
X153835595Y-96432438D02*
X153787976Y-96480057D01*
X153787976Y-96480057D02*
X153740357Y-96575295D01*
X153740357Y-96575295D02*
X153740357Y-96718152D01*
X153740357Y-96718152D02*
X153787976Y-96813390D01*
X153787976Y-96813390D02*
X153835595Y-96861009D01*
X153835595Y-96861009D02*
X153930833Y-96908628D01*
X153930833Y-96908628D02*
X154311785Y-96908628D01*
X152883214Y-96384819D02*
X153073690Y-96384819D01*
X153073690Y-96384819D02*
X153168928Y-96432438D01*
X153168928Y-96432438D02*
X153216547Y-96480057D01*
X153216547Y-96480057D02*
X153311785Y-96622914D01*
X153311785Y-96622914D02*
X153359404Y-96813390D01*
X153359404Y-96813390D02*
X153359404Y-97194342D01*
X153359404Y-97194342D02*
X153311785Y-97289580D01*
X153311785Y-97289580D02*
X153264166Y-97337200D01*
X153264166Y-97337200D02*
X153168928Y-97384819D01*
X153168928Y-97384819D02*
X152978452Y-97384819D01*
X152978452Y-97384819D02*
X152883214Y-97337200D01*
X152883214Y-97337200D02*
X152835595Y-97289580D01*
X152835595Y-97289580D02*
X152787976Y-97194342D01*
X152787976Y-97194342D02*
X152787976Y-96956247D01*
X152787976Y-96956247D02*
X152835595Y-96861009D01*
X152835595Y-96861009D02*
X152883214Y-96813390D01*
X152883214Y-96813390D02*
X152978452Y-96765771D01*
X152978452Y-96765771D02*
X153168928Y-96765771D01*
X153168928Y-96765771D02*
X153264166Y-96813390D01*
X153264166Y-96813390D02*
X153311785Y-96861009D01*
X153311785Y-96861009D02*
X153359404Y-96956247D01*
X151930833Y-96718152D02*
X151930833Y-97384819D01*
X152168928Y-96337200D02*
X152407023Y-97051485D01*
X152407023Y-97051485D02*
X151787976Y-97051485D01*
X144434579Y-110579142D02*
X144482199Y-110531523D01*
X144482199Y-110531523D02*
X144529818Y-110388666D01*
X144529818Y-110388666D02*
X144529818Y-110293428D01*
X144529818Y-110293428D02*
X144482199Y-110150571D01*
X144482199Y-110150571D02*
X144386960Y-110055333D01*
X144386960Y-110055333D02*
X144291722Y-110007714D01*
X144291722Y-110007714D02*
X144101246Y-109960095D01*
X144101246Y-109960095D02*
X143958389Y-109960095D01*
X143958389Y-109960095D02*
X143767913Y-110007714D01*
X143767913Y-110007714D02*
X143672675Y-110055333D01*
X143672675Y-110055333D02*
X143577437Y-110150571D01*
X143577437Y-110150571D02*
X143529818Y-110293428D01*
X143529818Y-110293428D02*
X143529818Y-110388666D01*
X143529818Y-110388666D02*
X143577437Y-110531523D01*
X143577437Y-110531523D02*
X143625056Y-110579142D01*
X143529818Y-110912476D02*
X143529818Y-111579142D01*
X143529818Y-111579142D02*
X144529818Y-111150571D01*
X144529818Y-112483904D02*
X144529818Y-111912476D01*
X144529818Y-112198190D02*
X143529818Y-112198190D01*
X143529818Y-112198190D02*
X143672675Y-112102952D01*
X143672675Y-112102952D02*
X143767913Y-112007714D01*
X143767913Y-112007714D02*
X143815532Y-111912476D01*
X104661904Y-115154819D02*
X104661904Y-115964342D01*
X104661904Y-115964342D02*
X104614285Y-116059580D01*
X104614285Y-116059580D02*
X104566666Y-116107200D01*
X104566666Y-116107200D02*
X104471428Y-116154819D01*
X104471428Y-116154819D02*
X104280952Y-116154819D01*
X104280952Y-116154819D02*
X104185714Y-116107200D01*
X104185714Y-116107200D02*
X104138095Y-116059580D01*
X104138095Y-116059580D02*
X104090476Y-115964342D01*
X104090476Y-115964342D02*
X104090476Y-115154819D01*
X103661904Y-115250057D02*
X103614285Y-115202438D01*
X103614285Y-115202438D02*
X103519047Y-115154819D01*
X103519047Y-115154819D02*
X103280952Y-115154819D01*
X103280952Y-115154819D02*
X103185714Y-115202438D01*
X103185714Y-115202438D02*
X103138095Y-115250057D01*
X103138095Y-115250057D02*
X103090476Y-115345295D01*
X103090476Y-115345295D02*
X103090476Y-115440533D01*
X103090476Y-115440533D02*
X103138095Y-115583390D01*
X103138095Y-115583390D02*
X103709523Y-116154819D01*
X103709523Y-116154819D02*
X103090476Y-116154819D01*
X99745999Y-122308319D02*
X99745999Y-122546414D01*
X99984094Y-122451176D02*
X99745999Y-122546414D01*
X99745999Y-122546414D02*
X99507904Y-122451176D01*
X99888856Y-122736890D02*
X99745999Y-122546414D01*
X99745999Y-122546414D02*
X99603142Y-122736890D01*
X99746000Y-123545180D02*
X99746000Y-123307085D01*
X99507905Y-123402323D02*
X99746000Y-123307085D01*
X99746000Y-123307085D02*
X99984095Y-123402323D01*
X99603143Y-123116609D02*
X99746000Y-123307085D01*
X99746000Y-123307085D02*
X99888857Y-123116609D01*
X157959580Y-91867142D02*
X158007200Y-91819523D01*
X158007200Y-91819523D02*
X158054819Y-91676666D01*
X158054819Y-91676666D02*
X158054819Y-91581428D01*
X158054819Y-91581428D02*
X158007200Y-91438571D01*
X158007200Y-91438571D02*
X157911961Y-91343333D01*
X157911961Y-91343333D02*
X157816723Y-91295714D01*
X157816723Y-91295714D02*
X157626247Y-91248095D01*
X157626247Y-91248095D02*
X157483390Y-91248095D01*
X157483390Y-91248095D02*
X157292914Y-91295714D01*
X157292914Y-91295714D02*
X157197676Y-91343333D01*
X157197676Y-91343333D02*
X157102438Y-91438571D01*
X157102438Y-91438571D02*
X157054819Y-91581428D01*
X157054819Y-91581428D02*
X157054819Y-91676666D01*
X157054819Y-91676666D02*
X157102438Y-91819523D01*
X157102438Y-91819523D02*
X157150057Y-91867142D01*
X157054819Y-92200476D02*
X157054819Y-92867142D01*
X157054819Y-92867142D02*
X158054819Y-92438571D01*
X157054819Y-93152857D02*
X157054819Y-93771904D01*
X157054819Y-93771904D02*
X157435771Y-93438571D01*
X157435771Y-93438571D02*
X157435771Y-93581428D01*
X157435771Y-93581428D02*
X157483390Y-93676666D01*
X157483390Y-93676666D02*
X157531009Y-93724285D01*
X157531009Y-93724285D02*
X157626247Y-93771904D01*
X157626247Y-93771904D02*
X157864342Y-93771904D01*
X157864342Y-93771904D02*
X157959580Y-93724285D01*
X157959580Y-93724285D02*
X158007200Y-93676666D01*
X158007200Y-93676666D02*
X158054819Y-93581428D01*
X158054819Y-93581428D02*
X158054819Y-93295714D01*
X158054819Y-93295714D02*
X158007200Y-93200476D01*
X158007200Y-93200476D02*
X157959580Y-93152857D01*
X132466666Y-84849580D02*
X132514285Y-84897200D01*
X132514285Y-84897200D02*
X132657142Y-84944819D01*
X132657142Y-84944819D02*
X132752380Y-84944819D01*
X132752380Y-84944819D02*
X132895237Y-84897200D01*
X132895237Y-84897200D02*
X132990475Y-84801961D01*
X132990475Y-84801961D02*
X133038094Y-84706723D01*
X133038094Y-84706723D02*
X133085713Y-84516247D01*
X133085713Y-84516247D02*
X133085713Y-84373390D01*
X133085713Y-84373390D02*
X133038094Y-84182914D01*
X133038094Y-84182914D02*
X132990475Y-84087676D01*
X132990475Y-84087676D02*
X132895237Y-83992438D01*
X132895237Y-83992438D02*
X132752380Y-83944819D01*
X132752380Y-83944819D02*
X132657142Y-83944819D01*
X132657142Y-83944819D02*
X132514285Y-83992438D01*
X132514285Y-83992438D02*
X132466666Y-84040057D01*
X131514285Y-84944819D02*
X132085713Y-84944819D01*
X131799999Y-84944819D02*
X131799999Y-83944819D01*
X131799999Y-83944819D02*
X131895237Y-84087676D01*
X131895237Y-84087676D02*
X131990475Y-84182914D01*
X131990475Y-84182914D02*
X132085713Y-84230533D01*
X135766666Y-84059580D02*
X135814285Y-84107200D01*
X135814285Y-84107200D02*
X135957142Y-84154819D01*
X135957142Y-84154819D02*
X136052380Y-84154819D01*
X136052380Y-84154819D02*
X136195237Y-84107200D01*
X136195237Y-84107200D02*
X136290475Y-84011961D01*
X136290475Y-84011961D02*
X136338094Y-83916723D01*
X136338094Y-83916723D02*
X136385713Y-83726247D01*
X136385713Y-83726247D02*
X136385713Y-83583390D01*
X136385713Y-83583390D02*
X136338094Y-83392914D01*
X136338094Y-83392914D02*
X136290475Y-83297676D01*
X136290475Y-83297676D02*
X136195237Y-83202438D01*
X136195237Y-83202438D02*
X136052380Y-83154819D01*
X136052380Y-83154819D02*
X135957142Y-83154819D01*
X135957142Y-83154819D02*
X135814285Y-83202438D01*
X135814285Y-83202438D02*
X135766666Y-83250057D01*
X134861904Y-83154819D02*
X135338094Y-83154819D01*
X135338094Y-83154819D02*
X135385713Y-83631009D01*
X135385713Y-83631009D02*
X135338094Y-83583390D01*
X135338094Y-83583390D02*
X135242856Y-83535771D01*
X135242856Y-83535771D02*
X135004761Y-83535771D01*
X135004761Y-83535771D02*
X134909523Y-83583390D01*
X134909523Y-83583390D02*
X134861904Y-83631009D01*
X134861904Y-83631009D02*
X134814285Y-83726247D01*
X134814285Y-83726247D02*
X134814285Y-83964342D01*
X134814285Y-83964342D02*
X134861904Y-84059580D01*
X134861904Y-84059580D02*
X134909523Y-84107200D01*
X134909523Y-84107200D02*
X135004761Y-84154819D01*
X135004761Y-84154819D02*
X135242856Y-84154819D01*
X135242856Y-84154819D02*
X135338094Y-84107200D01*
X135338094Y-84107200D02*
X135385713Y-84059580D01*
X136022857Y-119084819D02*
X136356190Y-118608628D01*
X136594285Y-119084819D02*
X136594285Y-118084819D01*
X136594285Y-118084819D02*
X136213333Y-118084819D01*
X136213333Y-118084819D02*
X136118095Y-118132438D01*
X136118095Y-118132438D02*
X136070476Y-118180057D01*
X136070476Y-118180057D02*
X136022857Y-118275295D01*
X136022857Y-118275295D02*
X136022857Y-118418152D01*
X136022857Y-118418152D02*
X136070476Y-118513390D01*
X136070476Y-118513390D02*
X136118095Y-118561009D01*
X136118095Y-118561009D02*
X136213333Y-118608628D01*
X136213333Y-118608628D02*
X136594285Y-118608628D01*
X135546666Y-119084819D02*
X135356190Y-119084819D01*
X135356190Y-119084819D02*
X135260952Y-119037200D01*
X135260952Y-119037200D02*
X135213333Y-118989580D01*
X135213333Y-118989580D02*
X135118095Y-118846723D01*
X135118095Y-118846723D02*
X135070476Y-118656247D01*
X135070476Y-118656247D02*
X135070476Y-118275295D01*
X135070476Y-118275295D02*
X135118095Y-118180057D01*
X135118095Y-118180057D02*
X135165714Y-118132438D01*
X135165714Y-118132438D02*
X135260952Y-118084819D01*
X135260952Y-118084819D02*
X135451428Y-118084819D01*
X135451428Y-118084819D02*
X135546666Y-118132438D01*
X135546666Y-118132438D02*
X135594285Y-118180057D01*
X135594285Y-118180057D02*
X135641904Y-118275295D01*
X135641904Y-118275295D02*
X135641904Y-118513390D01*
X135641904Y-118513390D02*
X135594285Y-118608628D01*
X135594285Y-118608628D02*
X135546666Y-118656247D01*
X135546666Y-118656247D02*
X135451428Y-118703866D01*
X135451428Y-118703866D02*
X135260952Y-118703866D01*
X135260952Y-118703866D02*
X135165714Y-118656247D01*
X135165714Y-118656247D02*
X135118095Y-118608628D01*
X135118095Y-118608628D02*
X135070476Y-118513390D01*
X134451428Y-118084819D02*
X134356190Y-118084819D01*
X134356190Y-118084819D02*
X134260952Y-118132438D01*
X134260952Y-118132438D02*
X134213333Y-118180057D01*
X134213333Y-118180057D02*
X134165714Y-118275295D01*
X134165714Y-118275295D02*
X134118095Y-118465771D01*
X134118095Y-118465771D02*
X134118095Y-118703866D01*
X134118095Y-118703866D02*
X134165714Y-118894342D01*
X134165714Y-118894342D02*
X134213333Y-118989580D01*
X134213333Y-118989580D02*
X134260952Y-119037200D01*
X134260952Y-119037200D02*
X134356190Y-119084819D01*
X134356190Y-119084819D02*
X134451428Y-119084819D01*
X134451428Y-119084819D02*
X134546666Y-119037200D01*
X134546666Y-119037200D02*
X134594285Y-118989580D01*
X134594285Y-118989580D02*
X134641904Y-118894342D01*
X134641904Y-118894342D02*
X134689523Y-118703866D01*
X134689523Y-118703866D02*
X134689523Y-118465771D01*
X134689523Y-118465771D02*
X134641904Y-118275295D01*
X134641904Y-118275295D02*
X134594285Y-118180057D01*
X134594285Y-118180057D02*
X134546666Y-118132438D01*
X134546666Y-118132438D02*
X134451428Y-118084819D01*
X117154523Y-68622063D02*
X117202142Y-68669683D01*
X117202142Y-68669683D02*
X117344999Y-68717302D01*
X117344999Y-68717302D02*
X117440237Y-68717302D01*
X117440237Y-68717302D02*
X117583094Y-68669683D01*
X117583094Y-68669683D02*
X117678332Y-68574444D01*
X117678332Y-68574444D02*
X117725951Y-68479206D01*
X117725951Y-68479206D02*
X117773570Y-68288730D01*
X117773570Y-68288730D02*
X117773570Y-68145873D01*
X117773570Y-68145873D02*
X117725951Y-67955397D01*
X117725951Y-67955397D02*
X117678332Y-67860159D01*
X117678332Y-67860159D02*
X117583094Y-67764921D01*
X117583094Y-67764921D02*
X117440237Y-67717302D01*
X117440237Y-67717302D02*
X117344999Y-67717302D01*
X117344999Y-67717302D02*
X117202142Y-67764921D01*
X117202142Y-67764921D02*
X117154523Y-67812540D01*
X116678332Y-68717302D02*
X116487856Y-68717302D01*
X116487856Y-68717302D02*
X116392618Y-68669683D01*
X116392618Y-68669683D02*
X116344999Y-68622063D01*
X116344999Y-68622063D02*
X116249761Y-68479206D01*
X116249761Y-68479206D02*
X116202142Y-68288730D01*
X116202142Y-68288730D02*
X116202142Y-67907778D01*
X116202142Y-67907778D02*
X116249761Y-67812540D01*
X116249761Y-67812540D02*
X116297380Y-67764921D01*
X116297380Y-67764921D02*
X116392618Y-67717302D01*
X116392618Y-67717302D02*
X116583094Y-67717302D01*
X116583094Y-67717302D02*
X116678332Y-67764921D01*
X116678332Y-67764921D02*
X116725951Y-67812540D01*
X116725951Y-67812540D02*
X116773570Y-67907778D01*
X116773570Y-67907778D02*
X116773570Y-68145873D01*
X116773570Y-68145873D02*
X116725951Y-68241111D01*
X116725951Y-68241111D02*
X116678332Y-68288730D01*
X116678332Y-68288730D02*
X116583094Y-68336349D01*
X116583094Y-68336349D02*
X116392618Y-68336349D01*
X116392618Y-68336349D02*
X116297380Y-68288730D01*
X116297380Y-68288730D02*
X116249761Y-68241111D01*
X116249761Y-68241111D02*
X116202142Y-68145873D01*
X115344999Y-67717302D02*
X115535475Y-67717302D01*
X115535475Y-67717302D02*
X115630713Y-67764921D01*
X115630713Y-67764921D02*
X115678332Y-67812540D01*
X115678332Y-67812540D02*
X115773570Y-67955397D01*
X115773570Y-67955397D02*
X115821189Y-68145873D01*
X115821189Y-68145873D02*
X115821189Y-68526825D01*
X115821189Y-68526825D02*
X115773570Y-68622063D01*
X115773570Y-68622063D02*
X115725951Y-68669683D01*
X115725951Y-68669683D02*
X115630713Y-68717302D01*
X115630713Y-68717302D02*
X115440237Y-68717302D01*
X115440237Y-68717302D02*
X115344999Y-68669683D01*
X115344999Y-68669683D02*
X115297380Y-68622063D01*
X115297380Y-68622063D02*
X115249761Y-68526825D01*
X115249761Y-68526825D02*
X115249761Y-68288730D01*
X115249761Y-68288730D02*
X115297380Y-68193492D01*
X115297380Y-68193492D02*
X115344999Y-68145873D01*
X115344999Y-68145873D02*
X115440237Y-68098254D01*
X115440237Y-68098254D02*
X115630713Y-68098254D01*
X115630713Y-68098254D02*
X115725951Y-68145873D01*
X115725951Y-68145873D02*
X115773570Y-68193492D01*
X115773570Y-68193492D02*
X115821189Y-68288730D01*
X104661904Y-107854819D02*
X104661904Y-108664342D01*
X104661904Y-108664342D02*
X104614285Y-108759580D01*
X104614285Y-108759580D02*
X104566666Y-108807200D01*
X104566666Y-108807200D02*
X104471428Y-108854819D01*
X104471428Y-108854819D02*
X104280952Y-108854819D01*
X104280952Y-108854819D02*
X104185714Y-108807200D01*
X104185714Y-108807200D02*
X104138095Y-108759580D01*
X104138095Y-108759580D02*
X104090476Y-108664342D01*
X104090476Y-108664342D02*
X104090476Y-107854819D01*
X103709523Y-107854819D02*
X103090476Y-107854819D01*
X103090476Y-107854819D02*
X103423809Y-108235771D01*
X103423809Y-108235771D02*
X103280952Y-108235771D01*
X103280952Y-108235771D02*
X103185714Y-108283390D01*
X103185714Y-108283390D02*
X103138095Y-108331009D01*
X103138095Y-108331009D02*
X103090476Y-108426247D01*
X103090476Y-108426247D02*
X103090476Y-108664342D01*
X103090476Y-108664342D02*
X103138095Y-108759580D01*
X103138095Y-108759580D02*
X103185714Y-108807200D01*
X103185714Y-108807200D02*
X103280952Y-108854819D01*
X103280952Y-108854819D02*
X103566666Y-108854819D01*
X103566666Y-108854819D02*
X103661904Y-108807200D01*
X103661904Y-108807200D02*
X103709523Y-108759580D01*
X107722023Y-66517302D02*
X108055356Y-66041111D01*
X108293451Y-66517302D02*
X108293451Y-65517302D01*
X108293451Y-65517302D02*
X107912499Y-65517302D01*
X107912499Y-65517302D02*
X107817261Y-65564921D01*
X107817261Y-65564921D02*
X107769642Y-65612540D01*
X107769642Y-65612540D02*
X107722023Y-65707778D01*
X107722023Y-65707778D02*
X107722023Y-65850635D01*
X107722023Y-65850635D02*
X107769642Y-65945873D01*
X107769642Y-65945873D02*
X107817261Y-65993492D01*
X107817261Y-65993492D02*
X107912499Y-66041111D01*
X107912499Y-66041111D02*
X108293451Y-66041111D01*
X107245832Y-66517302D02*
X107055356Y-66517302D01*
X107055356Y-66517302D02*
X106960118Y-66469683D01*
X106960118Y-66469683D02*
X106912499Y-66422063D01*
X106912499Y-66422063D02*
X106817261Y-66279206D01*
X106817261Y-66279206D02*
X106769642Y-66088730D01*
X106769642Y-66088730D02*
X106769642Y-65707778D01*
X106769642Y-65707778D02*
X106817261Y-65612540D01*
X106817261Y-65612540D02*
X106864880Y-65564921D01*
X106864880Y-65564921D02*
X106960118Y-65517302D01*
X106960118Y-65517302D02*
X107150594Y-65517302D01*
X107150594Y-65517302D02*
X107245832Y-65564921D01*
X107245832Y-65564921D02*
X107293451Y-65612540D01*
X107293451Y-65612540D02*
X107341070Y-65707778D01*
X107341070Y-65707778D02*
X107341070Y-65945873D01*
X107341070Y-65945873D02*
X107293451Y-66041111D01*
X107293451Y-66041111D02*
X107245832Y-66088730D01*
X107245832Y-66088730D02*
X107150594Y-66136349D01*
X107150594Y-66136349D02*
X106960118Y-66136349D01*
X106960118Y-66136349D02*
X106864880Y-66088730D01*
X106864880Y-66088730D02*
X106817261Y-66041111D01*
X106817261Y-66041111D02*
X106769642Y-65945873D01*
X105817261Y-66517302D02*
X106388689Y-66517302D01*
X106102975Y-66517302D02*
X106102975Y-65517302D01*
X106102975Y-65517302D02*
X106198213Y-65660159D01*
X106198213Y-65660159D02*
X106293451Y-65755397D01*
X106293451Y-65755397D02*
X106388689Y-65803016D01*
X140292857Y-101959580D02*
X140340476Y-102007200D01*
X140340476Y-102007200D02*
X140483333Y-102054819D01*
X140483333Y-102054819D02*
X140578571Y-102054819D01*
X140578571Y-102054819D02*
X140721428Y-102007200D01*
X140721428Y-102007200D02*
X140816666Y-101911961D01*
X140816666Y-101911961D02*
X140864285Y-101816723D01*
X140864285Y-101816723D02*
X140911904Y-101626247D01*
X140911904Y-101626247D02*
X140911904Y-101483390D01*
X140911904Y-101483390D02*
X140864285Y-101292914D01*
X140864285Y-101292914D02*
X140816666Y-101197676D01*
X140816666Y-101197676D02*
X140721428Y-101102438D01*
X140721428Y-101102438D02*
X140578571Y-101054819D01*
X140578571Y-101054819D02*
X140483333Y-101054819D01*
X140483333Y-101054819D02*
X140340476Y-101102438D01*
X140340476Y-101102438D02*
X140292857Y-101150057D01*
X139816666Y-102054819D02*
X139626190Y-102054819D01*
X139626190Y-102054819D02*
X139530952Y-102007200D01*
X139530952Y-102007200D02*
X139483333Y-101959580D01*
X139483333Y-101959580D02*
X139388095Y-101816723D01*
X139388095Y-101816723D02*
X139340476Y-101626247D01*
X139340476Y-101626247D02*
X139340476Y-101245295D01*
X139340476Y-101245295D02*
X139388095Y-101150057D01*
X139388095Y-101150057D02*
X139435714Y-101102438D01*
X139435714Y-101102438D02*
X139530952Y-101054819D01*
X139530952Y-101054819D02*
X139721428Y-101054819D01*
X139721428Y-101054819D02*
X139816666Y-101102438D01*
X139816666Y-101102438D02*
X139864285Y-101150057D01*
X139864285Y-101150057D02*
X139911904Y-101245295D01*
X139911904Y-101245295D02*
X139911904Y-101483390D01*
X139911904Y-101483390D02*
X139864285Y-101578628D01*
X139864285Y-101578628D02*
X139816666Y-101626247D01*
X139816666Y-101626247D02*
X139721428Y-101673866D01*
X139721428Y-101673866D02*
X139530952Y-101673866D01*
X139530952Y-101673866D02*
X139435714Y-101626247D01*
X139435714Y-101626247D02*
X139388095Y-101578628D01*
X139388095Y-101578628D02*
X139340476Y-101483390D01*
X138769047Y-101483390D02*
X138864285Y-101435771D01*
X138864285Y-101435771D02*
X138911904Y-101388152D01*
X138911904Y-101388152D02*
X138959523Y-101292914D01*
X138959523Y-101292914D02*
X138959523Y-101245295D01*
X138959523Y-101245295D02*
X138911904Y-101150057D01*
X138911904Y-101150057D02*
X138864285Y-101102438D01*
X138864285Y-101102438D02*
X138769047Y-101054819D01*
X138769047Y-101054819D02*
X138578571Y-101054819D01*
X138578571Y-101054819D02*
X138483333Y-101102438D01*
X138483333Y-101102438D02*
X138435714Y-101150057D01*
X138435714Y-101150057D02*
X138388095Y-101245295D01*
X138388095Y-101245295D02*
X138388095Y-101292914D01*
X138388095Y-101292914D02*
X138435714Y-101388152D01*
X138435714Y-101388152D02*
X138483333Y-101435771D01*
X138483333Y-101435771D02*
X138578571Y-101483390D01*
X138578571Y-101483390D02*
X138769047Y-101483390D01*
X138769047Y-101483390D02*
X138864285Y-101531009D01*
X138864285Y-101531009D02*
X138911904Y-101578628D01*
X138911904Y-101578628D02*
X138959523Y-101673866D01*
X138959523Y-101673866D02*
X138959523Y-101864342D01*
X138959523Y-101864342D02*
X138911904Y-101959580D01*
X138911904Y-101959580D02*
X138864285Y-102007200D01*
X138864285Y-102007200D02*
X138769047Y-102054819D01*
X138769047Y-102054819D02*
X138578571Y-102054819D01*
X138578571Y-102054819D02*
X138483333Y-102007200D01*
X138483333Y-102007200D02*
X138435714Y-101959580D01*
X138435714Y-101959580D02*
X138388095Y-101864342D01*
X138388095Y-101864342D02*
X138388095Y-101673866D01*
X138388095Y-101673866D02*
X138435714Y-101578628D01*
X138435714Y-101578628D02*
X138483333Y-101531009D01*
X138483333Y-101531009D02*
X138578571Y-101483390D01*
X110242857Y-96854819D02*
X110576190Y-96378628D01*
X110814285Y-96854819D02*
X110814285Y-95854819D01*
X110814285Y-95854819D02*
X110433333Y-95854819D01*
X110433333Y-95854819D02*
X110338095Y-95902438D01*
X110338095Y-95902438D02*
X110290476Y-95950057D01*
X110290476Y-95950057D02*
X110242857Y-96045295D01*
X110242857Y-96045295D02*
X110242857Y-96188152D01*
X110242857Y-96188152D02*
X110290476Y-96283390D01*
X110290476Y-96283390D02*
X110338095Y-96331009D01*
X110338095Y-96331009D02*
X110433333Y-96378628D01*
X110433333Y-96378628D02*
X110814285Y-96378628D01*
X109909523Y-95854819D02*
X109242857Y-95854819D01*
X109242857Y-95854819D02*
X109671428Y-96854819D01*
X108909523Y-95950057D02*
X108861904Y-95902438D01*
X108861904Y-95902438D02*
X108766666Y-95854819D01*
X108766666Y-95854819D02*
X108528571Y-95854819D01*
X108528571Y-95854819D02*
X108433333Y-95902438D01*
X108433333Y-95902438D02*
X108385714Y-95950057D01*
X108385714Y-95950057D02*
X108338095Y-96045295D01*
X108338095Y-96045295D02*
X108338095Y-96140533D01*
X108338095Y-96140533D02*
X108385714Y-96283390D01*
X108385714Y-96283390D02*
X108957142Y-96854819D01*
X108957142Y-96854819D02*
X108338095Y-96854819D01*
X158799580Y-105257142D02*
X158847200Y-105209523D01*
X158847200Y-105209523D02*
X158894819Y-105066666D01*
X158894819Y-105066666D02*
X158894819Y-104971428D01*
X158894819Y-104971428D02*
X158847200Y-104828571D01*
X158847200Y-104828571D02*
X158751961Y-104733333D01*
X158751961Y-104733333D02*
X158656723Y-104685714D01*
X158656723Y-104685714D02*
X158466247Y-104638095D01*
X158466247Y-104638095D02*
X158323390Y-104638095D01*
X158323390Y-104638095D02*
X158132914Y-104685714D01*
X158132914Y-104685714D02*
X158037676Y-104733333D01*
X158037676Y-104733333D02*
X157942438Y-104828571D01*
X157942438Y-104828571D02*
X157894819Y-104971428D01*
X157894819Y-104971428D02*
X157894819Y-105066666D01*
X157894819Y-105066666D02*
X157942438Y-105209523D01*
X157942438Y-105209523D02*
X157990057Y-105257142D01*
X158894819Y-105733333D02*
X158894819Y-105923809D01*
X158894819Y-105923809D02*
X158847200Y-106019047D01*
X158847200Y-106019047D02*
X158799580Y-106066666D01*
X158799580Y-106066666D02*
X158656723Y-106161904D01*
X158656723Y-106161904D02*
X158466247Y-106209523D01*
X158466247Y-106209523D02*
X158085295Y-106209523D01*
X158085295Y-106209523D02*
X157990057Y-106161904D01*
X157990057Y-106161904D02*
X157942438Y-106114285D01*
X157942438Y-106114285D02*
X157894819Y-106019047D01*
X157894819Y-106019047D02*
X157894819Y-105828571D01*
X157894819Y-105828571D02*
X157942438Y-105733333D01*
X157942438Y-105733333D02*
X157990057Y-105685714D01*
X157990057Y-105685714D02*
X158085295Y-105638095D01*
X158085295Y-105638095D02*
X158323390Y-105638095D01*
X158323390Y-105638095D02*
X158418628Y-105685714D01*
X158418628Y-105685714D02*
X158466247Y-105733333D01*
X158466247Y-105733333D02*
X158513866Y-105828571D01*
X158513866Y-105828571D02*
X158513866Y-106019047D01*
X158513866Y-106019047D02*
X158466247Y-106114285D01*
X158466247Y-106114285D02*
X158418628Y-106161904D01*
X158418628Y-106161904D02*
X158323390Y-106209523D01*
X158228152Y-107066666D02*
X158894819Y-107066666D01*
X157847200Y-106828571D02*
X158561485Y-106590476D01*
X158561485Y-106590476D02*
X158561485Y-107209523D01*
X129342857Y-116519580D02*
X129390476Y-116567200D01*
X129390476Y-116567200D02*
X129533333Y-116614819D01*
X129533333Y-116614819D02*
X129628571Y-116614819D01*
X129628571Y-116614819D02*
X129771428Y-116567200D01*
X129771428Y-116567200D02*
X129866666Y-116471961D01*
X129866666Y-116471961D02*
X129914285Y-116376723D01*
X129914285Y-116376723D02*
X129961904Y-116186247D01*
X129961904Y-116186247D02*
X129961904Y-116043390D01*
X129961904Y-116043390D02*
X129914285Y-115852914D01*
X129914285Y-115852914D02*
X129866666Y-115757676D01*
X129866666Y-115757676D02*
X129771428Y-115662438D01*
X129771428Y-115662438D02*
X129628571Y-115614819D01*
X129628571Y-115614819D02*
X129533333Y-115614819D01*
X129533333Y-115614819D02*
X129390476Y-115662438D01*
X129390476Y-115662438D02*
X129342857Y-115710057D01*
X128866666Y-116614819D02*
X128676190Y-116614819D01*
X128676190Y-116614819D02*
X128580952Y-116567200D01*
X128580952Y-116567200D02*
X128533333Y-116519580D01*
X128533333Y-116519580D02*
X128438095Y-116376723D01*
X128438095Y-116376723D02*
X128390476Y-116186247D01*
X128390476Y-116186247D02*
X128390476Y-115805295D01*
X128390476Y-115805295D02*
X128438095Y-115710057D01*
X128438095Y-115710057D02*
X128485714Y-115662438D01*
X128485714Y-115662438D02*
X128580952Y-115614819D01*
X128580952Y-115614819D02*
X128771428Y-115614819D01*
X128771428Y-115614819D02*
X128866666Y-115662438D01*
X128866666Y-115662438D02*
X128914285Y-115710057D01*
X128914285Y-115710057D02*
X128961904Y-115805295D01*
X128961904Y-115805295D02*
X128961904Y-116043390D01*
X128961904Y-116043390D02*
X128914285Y-116138628D01*
X128914285Y-116138628D02*
X128866666Y-116186247D01*
X128866666Y-116186247D02*
X128771428Y-116233866D01*
X128771428Y-116233866D02*
X128580952Y-116233866D01*
X128580952Y-116233866D02*
X128485714Y-116186247D01*
X128485714Y-116186247D02*
X128438095Y-116138628D01*
X128438095Y-116138628D02*
X128390476Y-116043390D01*
X128009523Y-115710057D02*
X127961904Y-115662438D01*
X127961904Y-115662438D02*
X127866666Y-115614819D01*
X127866666Y-115614819D02*
X127628571Y-115614819D01*
X127628571Y-115614819D02*
X127533333Y-115662438D01*
X127533333Y-115662438D02*
X127485714Y-115710057D01*
X127485714Y-115710057D02*
X127438095Y-115805295D01*
X127438095Y-115805295D02*
X127438095Y-115900533D01*
X127438095Y-115900533D02*
X127485714Y-116043390D01*
X127485714Y-116043390D02*
X128057142Y-116614819D01*
X128057142Y-116614819D02*
X127438095Y-116614819D01*
X158954819Y-111757142D02*
X158478628Y-111423809D01*
X158954819Y-111185714D02*
X157954819Y-111185714D01*
X157954819Y-111185714D02*
X157954819Y-111566666D01*
X157954819Y-111566666D02*
X158002438Y-111661904D01*
X158002438Y-111661904D02*
X158050057Y-111709523D01*
X158050057Y-111709523D02*
X158145295Y-111757142D01*
X158145295Y-111757142D02*
X158288152Y-111757142D01*
X158288152Y-111757142D02*
X158383390Y-111709523D01*
X158383390Y-111709523D02*
X158431009Y-111661904D01*
X158431009Y-111661904D02*
X158478628Y-111566666D01*
X158478628Y-111566666D02*
X158478628Y-111185714D01*
X158954819Y-112233333D02*
X158954819Y-112423809D01*
X158954819Y-112423809D02*
X158907200Y-112519047D01*
X158907200Y-112519047D02*
X158859580Y-112566666D01*
X158859580Y-112566666D02*
X158716723Y-112661904D01*
X158716723Y-112661904D02*
X158526247Y-112709523D01*
X158526247Y-112709523D02*
X158145295Y-112709523D01*
X158145295Y-112709523D02*
X158050057Y-112661904D01*
X158050057Y-112661904D02*
X158002438Y-112614285D01*
X158002438Y-112614285D02*
X157954819Y-112519047D01*
X157954819Y-112519047D02*
X157954819Y-112328571D01*
X157954819Y-112328571D02*
X158002438Y-112233333D01*
X158002438Y-112233333D02*
X158050057Y-112185714D01*
X158050057Y-112185714D02*
X158145295Y-112138095D01*
X158145295Y-112138095D02*
X158383390Y-112138095D01*
X158383390Y-112138095D02*
X158478628Y-112185714D01*
X158478628Y-112185714D02*
X158526247Y-112233333D01*
X158526247Y-112233333D02*
X158573866Y-112328571D01*
X158573866Y-112328571D02*
X158573866Y-112519047D01*
X158573866Y-112519047D02*
X158526247Y-112614285D01*
X158526247Y-112614285D02*
X158478628Y-112661904D01*
X158478628Y-112661904D02*
X158383390Y-112709523D01*
X158050057Y-113090476D02*
X158002438Y-113138095D01*
X158002438Y-113138095D02*
X157954819Y-113233333D01*
X157954819Y-113233333D02*
X157954819Y-113471428D01*
X157954819Y-113471428D02*
X158002438Y-113566666D01*
X158002438Y-113566666D02*
X158050057Y-113614285D01*
X158050057Y-113614285D02*
X158145295Y-113661904D01*
X158145295Y-113661904D02*
X158240533Y-113661904D01*
X158240533Y-113661904D02*
X158383390Y-113614285D01*
X158383390Y-113614285D02*
X158954819Y-113042857D01*
X158954819Y-113042857D02*
X158954819Y-113661904D01*
X153745357Y-92954819D02*
X154078690Y-92478628D01*
X154316785Y-92954819D02*
X154316785Y-91954819D01*
X154316785Y-91954819D02*
X153935833Y-91954819D01*
X153935833Y-91954819D02*
X153840595Y-92002438D01*
X153840595Y-92002438D02*
X153792976Y-92050057D01*
X153792976Y-92050057D02*
X153745357Y-92145295D01*
X153745357Y-92145295D02*
X153745357Y-92288152D01*
X153745357Y-92288152D02*
X153792976Y-92383390D01*
X153792976Y-92383390D02*
X153840595Y-92431009D01*
X153840595Y-92431009D02*
X153935833Y-92478628D01*
X153935833Y-92478628D02*
X154316785Y-92478628D01*
X152840595Y-91954819D02*
X153316785Y-91954819D01*
X153316785Y-91954819D02*
X153364404Y-92431009D01*
X153364404Y-92431009D02*
X153316785Y-92383390D01*
X153316785Y-92383390D02*
X153221547Y-92335771D01*
X153221547Y-92335771D02*
X152983452Y-92335771D01*
X152983452Y-92335771D02*
X152888214Y-92383390D01*
X152888214Y-92383390D02*
X152840595Y-92431009D01*
X152840595Y-92431009D02*
X152792976Y-92526247D01*
X152792976Y-92526247D02*
X152792976Y-92764342D01*
X152792976Y-92764342D02*
X152840595Y-92859580D01*
X152840595Y-92859580D02*
X152888214Y-92907200D01*
X152888214Y-92907200D02*
X152983452Y-92954819D01*
X152983452Y-92954819D02*
X153221547Y-92954819D01*
X153221547Y-92954819D02*
X153316785Y-92907200D01*
X153316785Y-92907200D02*
X153364404Y-92859580D01*
X152459642Y-91954819D02*
X151840595Y-91954819D01*
X151840595Y-91954819D02*
X152173928Y-92335771D01*
X152173928Y-92335771D02*
X152031071Y-92335771D01*
X152031071Y-92335771D02*
X151935833Y-92383390D01*
X151935833Y-92383390D02*
X151888214Y-92431009D01*
X151888214Y-92431009D02*
X151840595Y-92526247D01*
X151840595Y-92526247D02*
X151840595Y-92764342D01*
X151840595Y-92764342D02*
X151888214Y-92859580D01*
X151888214Y-92859580D02*
X151935833Y-92907200D01*
X151935833Y-92907200D02*
X152031071Y-92954819D01*
X152031071Y-92954819D02*
X152316785Y-92954819D01*
X152316785Y-92954819D02*
X152412023Y-92907200D01*
X152412023Y-92907200D02*
X152459642Y-92859580D01*
X142329818Y-110570642D02*
X141853627Y-110237309D01*
X142329818Y-109999214D02*
X141329818Y-109999214D01*
X141329818Y-109999214D02*
X141329818Y-110380166D01*
X141329818Y-110380166D02*
X141377437Y-110475404D01*
X141377437Y-110475404D02*
X141425056Y-110523023D01*
X141425056Y-110523023D02*
X141520294Y-110570642D01*
X141520294Y-110570642D02*
X141663151Y-110570642D01*
X141663151Y-110570642D02*
X141758389Y-110523023D01*
X141758389Y-110523023D02*
X141806008Y-110475404D01*
X141806008Y-110475404D02*
X141853627Y-110380166D01*
X141853627Y-110380166D02*
X141853627Y-109999214D01*
X141329818Y-110903976D02*
X141329818Y-111523023D01*
X141329818Y-111523023D02*
X141710770Y-111189690D01*
X141710770Y-111189690D02*
X141710770Y-111332547D01*
X141710770Y-111332547D02*
X141758389Y-111427785D01*
X141758389Y-111427785D02*
X141806008Y-111475404D01*
X141806008Y-111475404D02*
X141901246Y-111523023D01*
X141901246Y-111523023D02*
X142139341Y-111523023D01*
X142139341Y-111523023D02*
X142234579Y-111475404D01*
X142234579Y-111475404D02*
X142282199Y-111427785D01*
X142282199Y-111427785D02*
X142329818Y-111332547D01*
X142329818Y-111332547D02*
X142329818Y-111046833D01*
X142329818Y-111046833D02*
X142282199Y-110951595D01*
X142282199Y-110951595D02*
X142234579Y-110903976D01*
X141425056Y-111903976D02*
X141377437Y-111951595D01*
X141377437Y-111951595D02*
X141329818Y-112046833D01*
X141329818Y-112046833D02*
X141329818Y-112284928D01*
X141329818Y-112284928D02*
X141377437Y-112380166D01*
X141377437Y-112380166D02*
X141425056Y-112427785D01*
X141425056Y-112427785D02*
X141520294Y-112475404D01*
X141520294Y-112475404D02*
X141615532Y-112475404D01*
X141615532Y-112475404D02*
X141758389Y-112427785D01*
X141758389Y-112427785D02*
X142329818Y-111856357D01*
X142329818Y-111856357D02*
X142329818Y-112475404D01*
X102301485Y-70043925D02*
X101825294Y-69710592D01*
X102301485Y-69472497D02*
X101301485Y-69472497D01*
X101301485Y-69472497D02*
X101301485Y-69853449D01*
X101301485Y-69853449D02*
X101349104Y-69948687D01*
X101349104Y-69948687D02*
X101396723Y-69996306D01*
X101396723Y-69996306D02*
X101491961Y-70043925D01*
X101491961Y-70043925D02*
X101634818Y-70043925D01*
X101634818Y-70043925D02*
X101730056Y-69996306D01*
X101730056Y-69996306D02*
X101777675Y-69948687D01*
X101777675Y-69948687D02*
X101825294Y-69853449D01*
X101825294Y-69853449D02*
X101825294Y-69472497D01*
X101301485Y-70377259D02*
X101301485Y-71043925D01*
X101301485Y-71043925D02*
X102301485Y-70615354D01*
X101730056Y-71567735D02*
X101682437Y-71472497D01*
X101682437Y-71472497D02*
X101634818Y-71424878D01*
X101634818Y-71424878D02*
X101539580Y-71377259D01*
X101539580Y-71377259D02*
X101491961Y-71377259D01*
X101491961Y-71377259D02*
X101396723Y-71424878D01*
X101396723Y-71424878D02*
X101349104Y-71472497D01*
X101349104Y-71472497D02*
X101301485Y-71567735D01*
X101301485Y-71567735D02*
X101301485Y-71758211D01*
X101301485Y-71758211D02*
X101349104Y-71853449D01*
X101349104Y-71853449D02*
X101396723Y-71901068D01*
X101396723Y-71901068D02*
X101491961Y-71948687D01*
X101491961Y-71948687D02*
X101539580Y-71948687D01*
X101539580Y-71948687D02*
X101634818Y-71901068D01*
X101634818Y-71901068D02*
X101682437Y-71853449D01*
X101682437Y-71853449D02*
X101730056Y-71758211D01*
X101730056Y-71758211D02*
X101730056Y-71567735D01*
X101730056Y-71567735D02*
X101777675Y-71472497D01*
X101777675Y-71472497D02*
X101825294Y-71424878D01*
X101825294Y-71424878D02*
X101920532Y-71377259D01*
X101920532Y-71377259D02*
X102111008Y-71377259D01*
X102111008Y-71377259D02*
X102206246Y-71424878D01*
X102206246Y-71424878D02*
X102253866Y-71472497D01*
X102253866Y-71472497D02*
X102301485Y-71567735D01*
X102301485Y-71567735D02*
X102301485Y-71758211D01*
X102301485Y-71758211D02*
X102253866Y-71853449D01*
X102253866Y-71853449D02*
X102206246Y-71901068D01*
X102206246Y-71901068D02*
X102111008Y-71948687D01*
X102111008Y-71948687D02*
X101920532Y-71948687D01*
X101920532Y-71948687D02*
X101825294Y-71901068D01*
X101825294Y-71901068D02*
X101777675Y-71853449D01*
X101777675Y-71853449D02*
X101730056Y-71758211D01*
X110242857Y-94254819D02*
X110576190Y-93778628D01*
X110814285Y-94254819D02*
X110814285Y-93254819D01*
X110814285Y-93254819D02*
X110433333Y-93254819D01*
X110433333Y-93254819D02*
X110338095Y-93302438D01*
X110338095Y-93302438D02*
X110290476Y-93350057D01*
X110290476Y-93350057D02*
X110242857Y-93445295D01*
X110242857Y-93445295D02*
X110242857Y-93588152D01*
X110242857Y-93588152D02*
X110290476Y-93683390D01*
X110290476Y-93683390D02*
X110338095Y-93731009D01*
X110338095Y-93731009D02*
X110433333Y-93778628D01*
X110433333Y-93778628D02*
X110814285Y-93778628D01*
X109909523Y-93254819D02*
X109242857Y-93254819D01*
X109242857Y-93254819D02*
X109671428Y-94254819D01*
X108338095Y-94254819D02*
X108909523Y-94254819D01*
X108623809Y-94254819D02*
X108623809Y-93254819D01*
X108623809Y-93254819D02*
X108719047Y-93397676D01*
X108719047Y-93397676D02*
X108814285Y-93492914D01*
X108814285Y-93492914D02*
X108909523Y-93540533D01*
X110242857Y-90554819D02*
X110576190Y-90078628D01*
X110814285Y-90554819D02*
X110814285Y-89554819D01*
X110814285Y-89554819D02*
X110433333Y-89554819D01*
X110433333Y-89554819D02*
X110338095Y-89602438D01*
X110338095Y-89602438D02*
X110290476Y-89650057D01*
X110290476Y-89650057D02*
X110242857Y-89745295D01*
X110242857Y-89745295D02*
X110242857Y-89888152D01*
X110242857Y-89888152D02*
X110290476Y-89983390D01*
X110290476Y-89983390D02*
X110338095Y-90031009D01*
X110338095Y-90031009D02*
X110433333Y-90078628D01*
X110433333Y-90078628D02*
X110814285Y-90078628D01*
X109385714Y-89554819D02*
X109576190Y-89554819D01*
X109576190Y-89554819D02*
X109671428Y-89602438D01*
X109671428Y-89602438D02*
X109719047Y-89650057D01*
X109719047Y-89650057D02*
X109814285Y-89792914D01*
X109814285Y-89792914D02*
X109861904Y-89983390D01*
X109861904Y-89983390D02*
X109861904Y-90364342D01*
X109861904Y-90364342D02*
X109814285Y-90459580D01*
X109814285Y-90459580D02*
X109766666Y-90507200D01*
X109766666Y-90507200D02*
X109671428Y-90554819D01*
X109671428Y-90554819D02*
X109480952Y-90554819D01*
X109480952Y-90554819D02*
X109385714Y-90507200D01*
X109385714Y-90507200D02*
X109338095Y-90459580D01*
X109338095Y-90459580D02*
X109290476Y-90364342D01*
X109290476Y-90364342D02*
X109290476Y-90126247D01*
X109290476Y-90126247D02*
X109338095Y-90031009D01*
X109338095Y-90031009D02*
X109385714Y-89983390D01*
X109385714Y-89983390D02*
X109480952Y-89935771D01*
X109480952Y-89935771D02*
X109671428Y-89935771D01*
X109671428Y-89935771D02*
X109766666Y-89983390D01*
X109766666Y-89983390D02*
X109814285Y-90031009D01*
X109814285Y-90031009D02*
X109861904Y-90126247D01*
X108814285Y-90554819D02*
X108623809Y-90554819D01*
X108623809Y-90554819D02*
X108528571Y-90507200D01*
X108528571Y-90507200D02*
X108480952Y-90459580D01*
X108480952Y-90459580D02*
X108385714Y-90316723D01*
X108385714Y-90316723D02*
X108338095Y-90126247D01*
X108338095Y-90126247D02*
X108338095Y-89745295D01*
X108338095Y-89745295D02*
X108385714Y-89650057D01*
X108385714Y-89650057D02*
X108433333Y-89602438D01*
X108433333Y-89602438D02*
X108528571Y-89554819D01*
X108528571Y-89554819D02*
X108719047Y-89554819D01*
X108719047Y-89554819D02*
X108814285Y-89602438D01*
X108814285Y-89602438D02*
X108861904Y-89650057D01*
X108861904Y-89650057D02*
X108909523Y-89745295D01*
X108909523Y-89745295D02*
X108909523Y-89983390D01*
X108909523Y-89983390D02*
X108861904Y-90078628D01*
X108861904Y-90078628D02*
X108814285Y-90126247D01*
X108814285Y-90126247D02*
X108719047Y-90173866D01*
X108719047Y-90173866D02*
X108528571Y-90173866D01*
X108528571Y-90173866D02*
X108433333Y-90126247D01*
X108433333Y-90126247D02*
X108385714Y-90078628D01*
X108385714Y-90078628D02*
X108338095Y-89983390D01*
X107722023Y-68695502D02*
X108055356Y-68219311D01*
X108293451Y-68695502D02*
X108293451Y-67695502D01*
X108293451Y-67695502D02*
X107912499Y-67695502D01*
X107912499Y-67695502D02*
X107817261Y-67743121D01*
X107817261Y-67743121D02*
X107769642Y-67790740D01*
X107769642Y-67790740D02*
X107722023Y-67885978D01*
X107722023Y-67885978D02*
X107722023Y-68028835D01*
X107722023Y-68028835D02*
X107769642Y-68124073D01*
X107769642Y-68124073D02*
X107817261Y-68171692D01*
X107817261Y-68171692D02*
X107912499Y-68219311D01*
X107912499Y-68219311D02*
X108293451Y-68219311D01*
X107245832Y-68695502D02*
X107055356Y-68695502D01*
X107055356Y-68695502D02*
X106960118Y-68647883D01*
X106960118Y-68647883D02*
X106912499Y-68600263D01*
X106912499Y-68600263D02*
X106817261Y-68457406D01*
X106817261Y-68457406D02*
X106769642Y-68266930D01*
X106769642Y-68266930D02*
X106769642Y-67885978D01*
X106769642Y-67885978D02*
X106817261Y-67790740D01*
X106817261Y-67790740D02*
X106864880Y-67743121D01*
X106864880Y-67743121D02*
X106960118Y-67695502D01*
X106960118Y-67695502D02*
X107150594Y-67695502D01*
X107150594Y-67695502D02*
X107245832Y-67743121D01*
X107245832Y-67743121D02*
X107293451Y-67790740D01*
X107293451Y-67790740D02*
X107341070Y-67885978D01*
X107341070Y-67885978D02*
X107341070Y-68124073D01*
X107341070Y-68124073D02*
X107293451Y-68219311D01*
X107293451Y-68219311D02*
X107245832Y-68266930D01*
X107245832Y-68266930D02*
X107150594Y-68314549D01*
X107150594Y-68314549D02*
X106960118Y-68314549D01*
X106960118Y-68314549D02*
X106864880Y-68266930D01*
X106864880Y-68266930D02*
X106817261Y-68219311D01*
X106817261Y-68219311D02*
X106769642Y-68124073D01*
X106436308Y-67695502D02*
X105817261Y-67695502D01*
X105817261Y-67695502D02*
X106150594Y-68076454D01*
X106150594Y-68076454D02*
X106007737Y-68076454D01*
X106007737Y-68076454D02*
X105912499Y-68124073D01*
X105912499Y-68124073D02*
X105864880Y-68171692D01*
X105864880Y-68171692D02*
X105817261Y-68266930D01*
X105817261Y-68266930D02*
X105817261Y-68505025D01*
X105817261Y-68505025D02*
X105864880Y-68600263D01*
X105864880Y-68600263D02*
X105912499Y-68647883D01*
X105912499Y-68647883D02*
X106007737Y-68695502D01*
X106007737Y-68695502D02*
X106293451Y-68695502D01*
X106293451Y-68695502D02*
X106388689Y-68647883D01*
X106388689Y-68647883D02*
X106436308Y-68600263D01*
D12*
%TO.C,J1*%
X140209501Y-58762499D02*
G75*
G02*
X139447501Y-58762499I-381000J0D01*
G01*
X139447501Y-58762499D02*
G75*
G02*
X140209501Y-58762499I381000J0D01*
G01*
D13*
%TO.C,C2*%
X144140000Y-76829165D02*
X144140000Y-77060835D01*
X144860000Y-76829165D02*
X144860000Y-77060835D01*
%TO.C,C101*%
X140940000Y-87915835D02*
X140940000Y-87684165D01*
X141660000Y-87915835D02*
X141660000Y-87684165D01*
%TO.C,C70*%
X144814999Y-111106165D02*
X144814999Y-111337835D01*
X145534999Y-111106165D02*
X145534999Y-111337835D01*
%TO.C,C76*%
X156384165Y-100140000D02*
X156615835Y-100140000D01*
X156384165Y-100860000D02*
X156615835Y-100860000D01*
D14*
%TO.C,U4*%
X100501650Y-129223900D02*
X104743450Y-129223900D01*
X104743450Y-123966100D02*
X100501650Y-123966100D01*
D13*
%TO.C,R77*%
X101466666Y-77025104D02*
X101466666Y-76689862D01*
X102226666Y-77025104D02*
X102226666Y-76689862D01*
D15*
%TO.C,T3*%
X127755000Y-106425000D02*
X131247500Y-106425000D01*
X127755000Y-112775000D02*
X127755000Y-106425000D01*
X131247500Y-106425000D02*
X133152500Y-106425000D01*
X131247500Y-107695000D02*
X131247500Y-106425000D01*
X133152500Y-106425000D02*
X133152500Y-107695000D01*
X133152500Y-106425000D02*
X136645000Y-106425000D01*
X133152500Y-107695000D02*
X131247500Y-107695000D01*
X136645000Y-106425000D02*
X136645000Y-112775000D01*
X136645000Y-112775000D02*
X127755000Y-112775000D01*
D16*
%TO.C,Y1*%
X147150000Y-85700000D02*
X147150000Y-74300000D01*
X151850000Y-85700000D02*
X151850000Y-74300000D01*
D13*
%TO.C,C75*%
X155940000Y-92394165D02*
X155940000Y-92625835D01*
X156660000Y-92394165D02*
X156660000Y-92625835D01*
%TO.C,C3*%
X144140000Y-83170835D02*
X144140000Y-82939165D01*
X144860000Y-83170835D02*
X144860000Y-82939165D01*
%TO.C,R35*%
X153267621Y-90930000D02*
X152932379Y-90930000D01*
X153267621Y-91690000D02*
X152932379Y-91690000D01*
%TO.C,C93*%
X156940000Y-106015835D02*
X156940000Y-105784165D01*
X157660000Y-106015835D02*
X157660000Y-105784165D01*
D14*
%TO.C,U29*%
X106871566Y-72268483D02*
X106871566Y-77856483D01*
X106871566Y-77856483D02*
X107694526Y-77856483D01*
X107694526Y-72268483D02*
X106871566Y-72268483D01*
X116538806Y-77856483D02*
X117361766Y-77856483D01*
X117361766Y-72268483D02*
X116538806Y-72268483D01*
X117361766Y-77856483D02*
X117361766Y-72268483D01*
X106871566Y-74757683D02*
G75*
G02*
X106871566Y-75367283I0J-304800D01*
G01*
D17*
G36*
X113577166Y-80028183D02*
G01*
X113196166Y-80028183D01*
X113196166Y-79774183D01*
X113577166Y-79774183D01*
X113577166Y-80028183D01*
G37*
D15*
%TO.C,T4*%
X148425000Y-104855000D02*
X154775000Y-104855000D01*
X148425000Y-113745000D02*
X148425000Y-104855000D01*
X153505000Y-108347500D02*
X154775000Y-108347500D01*
X153505000Y-110252500D02*
X153505000Y-108347500D01*
X154775000Y-104855000D02*
X154775000Y-108347500D01*
X154775000Y-108347500D02*
X154775000Y-110252500D01*
X154775000Y-110252500D02*
X153505000Y-110252500D01*
X154775000Y-110252500D02*
X154775000Y-113745000D01*
X154775000Y-113745000D02*
X148425000Y-113745000D01*
D13*
%TO.C,C97*%
X156940000Y-112553335D02*
X156940000Y-112321665D01*
X157660000Y-112553335D02*
X157660000Y-112321665D01*
D14*
%TO.C,U1*%
X138379100Y-78379100D02*
X138379100Y-79040259D01*
X138379100Y-81959741D02*
X138379100Y-82620900D01*
X138379100Y-82620900D02*
X139040259Y-82620900D01*
X139040259Y-78379100D02*
X138379100Y-78379100D01*
X141959741Y-82620900D02*
X142620900Y-82620900D01*
X142620900Y-78379100D02*
X141959741Y-78379100D01*
X142620900Y-79040259D02*
X142620900Y-78379100D01*
X142620900Y-82620900D02*
X142620900Y-81959741D01*
D17*
G36*
X138048900Y-79690499D02*
G01*
X137794900Y-79690499D01*
X137794900Y-79309499D01*
X138048900Y-79309499D01*
X138048900Y-79690499D01*
G37*
G36*
X143205100Y-81690501D02*
G01*
X142951100Y-81690501D01*
X142951100Y-81309501D01*
X143205100Y-81309501D01*
X143205100Y-81690501D01*
G37*
D13*
%TO.C,R70*%
X106267621Y-91422501D02*
X105932379Y-91422501D01*
X106267621Y-92182501D02*
X105932379Y-92182501D01*
%TO.C,C81*%
X170265835Y-100990000D02*
X170034165Y-100990000D01*
X170265835Y-101710000D02*
X170034165Y-101710000D01*
D14*
%TO.C,U19*%
X141502900Y-104502900D02*
X141502900Y-105232910D01*
X141502900Y-108167090D02*
X141502900Y-108897100D01*
X141502900Y-108897100D02*
X142232910Y-108897100D01*
X142232910Y-104502900D02*
X141502900Y-104502900D01*
X145167090Y-108897100D02*
X145897100Y-108897100D01*
X145897100Y-104502900D02*
X145167090Y-104502900D01*
X145897100Y-105232910D02*
X145897100Y-104502900D01*
X145897100Y-108897100D02*
X145897100Y-108167090D01*
D17*
G36*
X146138400Y-106565499D02*
G01*
X145884400Y-106565499D01*
X145884400Y-106184499D01*
X146138400Y-106184499D01*
X146138400Y-106565499D01*
G37*
D13*
%TO.C,C91*%
X128780835Y-117010000D02*
X128549165Y-117010000D01*
X128780835Y-117730000D02*
X128549165Y-117730000D01*
%TO.C,C95*%
X135715835Y-114670000D02*
X135484165Y-114670000D01*
X135715835Y-115390000D02*
X135484165Y-115390000D01*
%TO.C,R63*%
X152932379Y-95420000D02*
X153267621Y-95420000D01*
X152932379Y-96180000D02*
X153267621Y-96180000D01*
%TO.C,C78*%
X156384165Y-102040000D02*
X156615835Y-102040000D01*
X156384165Y-102760000D02*
X156615835Y-102760000D01*
D16*
%TO.C,U22*%
X137475000Y-70550000D02*
X137475000Y-74450000D01*
X142525000Y-70550000D02*
X142525000Y-74450000D01*
D10*
X142005000Y-76540000D02*
G75*
G02*
X141805000Y-76540000I-100000J0D01*
G01*
X141805000Y-76540000D02*
G75*
G02*
X142005000Y-76540000I100000J0D01*
G01*
D13*
%TO.C,C99*%
X125684165Y-87240000D02*
X125915835Y-87240000D01*
X125684165Y-87960000D02*
X125915835Y-87960000D01*
%TO.C,R64*%
X152929879Y-97720000D02*
X153265121Y-97720000D01*
X152929879Y-98480000D02*
X153265121Y-98480000D01*
%TO.C,C71*%
X142634999Y-111126165D02*
X142634999Y-111357835D01*
X143354999Y-111126165D02*
X143354999Y-111357835D01*
D14*
%TO.C,U2*%
X100501650Y-121926400D02*
X104743450Y-121926400D01*
X104743450Y-116668600D02*
X100501650Y-116668600D01*
D13*
%TO.C,C73*%
X158340000Y-92394165D02*
X158340000Y-92625835D01*
X159060000Y-92394165D02*
X159060000Y-92625835D01*
%TO.C,C1*%
X132184165Y-85290000D02*
X132415835Y-85290000D01*
X132184165Y-86010000D02*
X132415835Y-86010000D01*
%TO.C,C5*%
X135715835Y-84490000D02*
X135484165Y-84490000D01*
X135715835Y-85210000D02*
X135484165Y-85210000D01*
%TO.C,R90*%
X135412379Y-117020000D02*
X135747621Y-117020000D01*
X135412379Y-117780000D02*
X135747621Y-117780000D01*
%TO.C,C96*%
X113795831Y-67902483D02*
X114027501Y-67902483D01*
X113795831Y-68622483D02*
X114027501Y-68622483D01*
D14*
%TO.C,U3*%
X100501650Y-114628900D02*
X104743450Y-114628900D01*
X104743450Y-109371100D02*
X100501650Y-109371100D01*
D13*
%TO.C,R91*%
X109886787Y-65682483D02*
X109551545Y-65682483D01*
X109886787Y-66442483D02*
X109551545Y-66442483D01*
%TO.C,C98*%
X142415835Y-101290000D02*
X142184165Y-101290000D01*
X142415835Y-102010000D02*
X142184165Y-102010000D01*
%TO.C,R72*%
X105932379Y-96020000D02*
X106267621Y-96020000D01*
X105932379Y-96780000D02*
X106267621Y-96780000D01*
%TO.C,C94*%
X159240000Y-106015835D02*
X159240000Y-105784165D01*
X159960000Y-106015835D02*
X159960000Y-105784165D01*
%TO.C,C92*%
X128780835Y-114640000D02*
X128549165Y-114640000D01*
X128780835Y-115360000D02*
X128549165Y-115360000D01*
%TO.C,R92*%
X159220000Y-112269879D02*
X159220000Y-112605121D01*
X159980000Y-112269879D02*
X159980000Y-112605121D01*
%TO.C,R53*%
X153270121Y-93220000D02*
X152934879Y-93220000D01*
X153270121Y-93980000D02*
X152934879Y-93980000D01*
%TO.C,R32*%
X140424999Y-111054379D02*
X140424999Y-111389621D01*
X141184999Y-111054379D02*
X141184999Y-111389621D01*
%TO.C,R78*%
X101466666Y-73451904D02*
X101466666Y-73116662D01*
X102226666Y-73451904D02*
X102226666Y-73116662D01*
%TO.C,R71*%
X106267621Y-93412501D02*
X105932379Y-93412501D01*
X106267621Y-94172501D02*
X105932379Y-94172501D01*
%TO.C,R69*%
X106267621Y-89432501D02*
X105932379Y-89432501D01*
X106267621Y-90192501D02*
X105932379Y-90192501D01*
%TO.C,R93*%
X109551545Y-67882483D02*
X109886787Y-67882483D01*
X109551545Y-68642483D02*
X109886787Y-68642483D01*
%TD*%
M02*
