%TF.GenerationSoftware,KiCad,Pcbnew,8.0.7*%
%TF.CreationDate,2025-02-06T16:30:48-03:00*%
%TF.ProjectId,adcs_board,61646373-5f62-46f6-9172-642e6b696361,1.0*%
%TF.SameCoordinates,Original*%
%TF.FileFunction,Profile,NP*%
%FSLAX46Y46*%
G04 Gerber Fmt 4.6, Leading zero omitted, Abs format (unit mm)*
G04 Created by KiCad (PCBNEW 8.0.7) date 2025-02-06 16:30:48*
%MOMM*%
%LPD*%
G01*
G04 APERTURE LIST*
%TA.AperFunction,Profile*%
%ADD10C,0.200000*%
%TD*%
G04 APERTURE END LIST*
D10*
X177096800Y-131888300D02*
X177651800Y-131368000D01*
X176350530Y-135765023D02*
G75*
G02*
X173124566Y-139009966I-3280530J35323D01*
G01*
X88964000Y-59049500D02*
X88964000Y-83925500D01*
X88972000Y-101926500D02*
X88972000Y-135249900D01*
X178102800Y-130206000D02*
X178102800Y-101924500D01*
X175558480Y-55263896D02*
G75*
G02*
X174430784Y-52962028I2776520J2787396D01*
G01*
X124558000Y-46894500D02*
X142577000Y-46894500D01*
X92835341Y-138994638D02*
G75*
G02*
X88972367Y-135249868I159659J4029538D01*
G01*
X88972000Y-101926500D02*
X88972000Y-83925500D01*
X174825450Y-135729700D02*
G75*
G02*
X171314550Y-135729700I-1755450J0D01*
G01*
X171314550Y-135729700D02*
G75*
G02*
X174825450Y-135729700I1755450J0D01*
G01*
X170140614Y-46894474D02*
G75*
G02*
X174430986Y-50048722I587386J-3696026D01*
G01*
X162535000Y-139010000D02*
X173125000Y-139010000D01*
X172365840Y-50103500D02*
G75*
G02*
X168834160Y-50103500I-1765840J0D01*
G01*
X168834160Y-50103500D02*
G75*
G02*
X172365840Y-50103500I1765840J0D01*
G01*
X176837300Y-56298500D02*
X175558500Y-55263500D01*
X88963770Y-59049157D02*
G75*
G02*
X90544140Y-56161535I4028230J-328343D01*
G01*
X91996000Y-55440500D02*
X90544000Y-56161500D01*
X176350837Y-133397183D02*
G75*
G02*
X177096890Y-131888328I2422463J-258917D01*
G01*
X174430800Y-52961500D02*
X174430800Y-50048500D01*
X178102810Y-130205991D02*
G75*
G02*
X177651885Y-131367982I-1722610J-9D01*
G01*
X178100500Y-83917500D02*
X178100500Y-101924500D01*
X170140000Y-46894500D02*
X142577000Y-46894500D01*
X98659670Y-50063500D02*
G75*
G02*
X95188330Y-50063500I-1735670J0D01*
G01*
X95188330Y-50063500D02*
G75*
G02*
X98659670Y-50063500I1735670J0D01*
G01*
X94827570Y-135765000D02*
G75*
G02*
X91268430Y-135765000I-1779570J0D01*
G01*
X91268430Y-135765000D02*
G75*
G02*
X94827570Y-135765000I1779570J0D01*
G01*
X93537407Y-52947731D02*
G75*
G02*
X91995817Y-55440496I-3302407J319231D01*
G01*
X178100500Y-83917500D02*
X178100500Y-59588500D01*
X176837474Y-56298785D02*
G75*
G02*
X178100717Y-59588805I-3055474J-3060715D01*
G01*
X176350800Y-135765000D02*
X176350800Y-133397100D01*
X162535000Y-139010000D02*
X104579000Y-139010000D01*
X93537402Y-50053726D02*
G75*
G02*
X97051749Y-46894662I3276598J-110774D01*
G01*
X124558000Y-46894500D02*
X97052000Y-46894500D01*
X92835000Y-138994600D02*
X104579000Y-139010000D01*
X93537000Y-50053500D02*
X93537000Y-52947500D01*
M02*
